DBRep_DrawableShape

CASCADE Topology V1, (c) Matra-Datavision
Locations 5
1
              1               0               0               0 
              0               1               0               0 
              0               0               1               1 
1
              1               0               0               0 
              0               1               0               0 
              0               0               1               1 
2  1 -1 0
2  2 -1 0
2  1 1 2 -1 0
Curve2ds 41
1 0 0 0 -1 
1 1 0 0 -1 
1 0 0 1 0 
1 0 -1 1 0 
1 -0.5 -0.5 1 0 
1 0 0 0 -1 
1 1 0 0 -1 
1 1 0 0 -1 
1 0 0 0 -1 
1 1 0 0 -1 
1 0 0 0 -1 
1 -0.5 0.5 0 -1 
1 0 0 1 0 
1 0 -1 1 0 
1 0 0 1 0 
1 0 -1 1 0 
1 -0.5 0.5 0 -1 
1 1 0 -1 0 
1 0.5 0.5 0 -1 
1 0 -0 1 0 
1 0 -1 1 0 
1 0.5 0.5 -1 0 
1 1 -1 -1 0 
1 0.5 0.5 0 -1 
1 0 0 0 -1 
1 1 0 0 -1 
1 1 0 0 -1 
1 0 -0 0 -1 
1 0 0 1 0 
1 0 -1 1 0 
1 -0.5 -0.5 1 0 
1 1 0 0 -1 
1 0 0 0 -1 
1 0.5 -0.5 0 1 
1 0 0 1 0 
1 0 -1 1 0 
1 0.5 0.5 -1 0 
1 0 -0 1 0 
1 0 -1 1 0 
1 0 -0 0 -1 
1 1 0 0 -1 
Curves 13
1 0 0 0 0 0 1 
1 0 0 0 1 0 0 
1 1 0 0 0 0 1 
1 0 1 0 0 0 1 
1 0 1 0 0 -1 0 
1 1 1 0 0 -1 0 
1 1 1 0 -1 0 0 
1 1 1 0 0 0 1 
1 1 0 0 1 0 0 
1 2 0 0 0 0 1 
1 2 0 0 0 1 0 
1 2 1 0 -1 0 0 
1 2 1 0 0 0 1 
Polygon3D 0
PolygonOnTriangulations 0
Surfaces 10
1 0 0 0 0 1 0 1 0 0 0 0 -1 
1 0 1 0 1 0 -0 0 -1 0 0 -0 -1 
1 0.5 0.5 0 0 0 1 1 0 -0 -0 1 0 
1 1 0 0 0 1 0 1 0 0 0 0 -1 
1 1 1 0 1 0 -0 0 -1 0 0 -0 -1 
1 1 0 0 -1 0 0 0 1 0 0 0 -1 
1 1 1 0 0 -1 0 -1 0 0 -0 -0 -1 
1 1.5 0.5 0 0 0 1 1 0 -0 -0 1 0 
1 2 1 0 0 -1 0 -1 0 0 -0 -0 -1 
1 2 0 0 -1 0 0 0 1 0 0 0 -1 
Triangulations 0

TShapes 53
Ve
1e-07
0 0 0
0 0

0101101
*
Ve
1e-07
1 0 0
0 0

0101101
*
Ve
1e-07
1 0 1
0 0

0101101
*
Ve
1e-07
0 1 0
0 0

0101101
*
Ve
1e-07
1 1 0
0 0

0101101
*
Ve
1e-07
1 1 1
0 0

0101101
*
Ve
1e-07
2 0 0
0 0

0101101
*
Ve
1e-07
2 1 0
0 0

0101101
*
Ed
 1e-07 1 1 0
1  1 0 0 1
2  1 1 0 0 1
2  2 2 0 0 1
0

0101000
+53 0 -53 1 *
Ed
 1e-07 1 1 0
1  2 0 0 1
2  3 1 0 0 1
2  4 1 3 0 1
2  5 3 0 0 1
0

0101000
+53 0 -52 0 *
Ed
 1e-07 1 1 0
1  2 0 0 1
2  3 1 0 0 1
2  4 1 3 0 1
2  5 3 0 0 1
0

0101000
+53 0 -51 3 *
Ed
 1e-07 1 1 0
1  3 0 0 1
2  6 4 0 0 1
2  7 5 0 0 1
2  8 1 0 0 1
2  9 6 0 0 1
0

0101000
+52 0 -51 0 *
Ed
 1e-07 1 1 0
1  4 0 0 1
2  10 7 0 0 1
2  11 2 0 0 1
0

0101000
+50 0 -50 1 *
Ed
 1e-07 1 1 0
1  5 0 0 1
2  12 3 0 0 1
2  13 2 0 0 1
2  14 2 3 0 1
0

0101000
+50 0 -53 0 *
Ed
 1e-07 1 1 0
1  6 0 0 1
2  15 5 0 0 1
2  16 5 4 0 1
2  17 8 0 0 1
2  18 6 0 0 1
2  19 3 0 0 1
0

0101000
+49 0 -52 0 *
Ed
 1e-07 1 1 0
1  7 0 0 1
2  20 7 0 0 1
2  21 7 3 0 1
2  22 3 0 0 1
0

0101000
+49 0 -50 0 *
Ed
 1e-07 1 1 0
1  6 0 0 1
2  15 5 0 0 1
2  16 5 4 0 1
2  17 8 0 0 1
2  23 6 4 0 1
2  24 3 5 0 1
0

0101000
+48 4 -51 4 *
Ed
 1e-07 1 1 0
1  7 0 0 1
2  20 7 0 0 1
2  21 7 3 0 1
2  22 3 0 0 1
0

0101000
+48 3 -50 0 *
Ed
 1e-07 1 1 0
1  8 0 0 1
2  25 5 0 0 1
2  26 9 0 0 1
2  27 6 0 0 1
2  28 7 0 0 1
0

0101000
+49 0 -48 0 *
Ed
 1e-07 1 1 0
1  9 0 0 1
2  29 4 0 0 1
2  30 4 4 0 1
2  31 8 0 0 1
0

0101000
+52 0 -47 0 *
Ed
 1e-07 1 1 0
1  9 0 0 1
2  29 4 0 0 1
2  30 4 4 0 1
2  31 8 0 0 1
0

0101000
+51 4 -47 0 *
Ed
 1e-07 1 1 0
1  10 0 0 1
2  32 4 0 0 1
2  33 10 0 0 1
0

0101000
+47 0 -47 2 *
Ed
 1e-07 1 1 0
1  11 0 0 1
2  34 8 0 0 1
2  35 10 0 0 1
2  36 10 4 0 1
0

0101000
+47 0 -46 0 *
Ed
 1e-07 1 1 0
1  12 0 0 1
2  37 8 0 0 1
2  38 9 0 0 1
2  39 9 4 0 1
0

0101000
+46 0 -49 0 *
Ed
 1e-07 1 1 0
1  12 0 0 1
2  37 8 0 0 1
2  38 9 0 0 1
2  39 9 4 0 1
0

0101000
+46 0 -48 4 *
Ed
 1e-07 1 1 0
1  13 0 0 1
2  40 9 0 0 1
2  41 10 0 0 1
0

0101000
+46 0 -46 2 *
Wi

0101100
+45 0 -44 0 +43 1 -42 0 *
Wi

0101100
+41 0 -45 0 -40 0 +40 1 *
Wi

0101100
+44 0 +40 0 -39 0 +38 0 *
Wi

0101100
+43 1 +40 1 -37 2 +36 1 *
Wi

0101100
+42 0 +39 0 -37 2 -35 0 *
Wi

0101100
+35 0 -38 0 +36 1 -41 0 *
Wi

0101100
+42 0 -34 0 +33 2 -32 0 *
Wi

0101100
+34 0 +39 0 +31 0 +30 0 *
Wi

0101100
+33 2 +37 2 +31 2 +29 2 *
Wi

0101100
+32 0 -28 0 -31 0 +31 2 *
Wi

0101100
+28 0 -30 0 +29 2 -35 0 *
Fa
0  1e-07 1 0

0111000
+27 0 *
Fa
0  1e-07 2 0

0111000
+26 0 *
Fa
0  1e-07 3 0

0111000
+25 0 *
Fa
0  1e-07 3 1

0111000
+24 0 *
Fa
0  1e-07 6 0

0111000
+23 0 *
Fa
0  1e-07 7 0

0111000
+22 0 *
Fa
0  1e-07 4 0

0111000
+21 0 *
Fa
0  1e-07 8 0

0111000
+20 0 *
Fa
0  1e-07 8 2

0111000
+19 0 *
Fa
0  1e-07 10 0

0111000
+18 0 *
Fa
0  1e-07 9 0

0111000
+17 0 *
Sh

0101100
-16 0 -15 0 -14 0 +13 0 -12 0 -11 0 *
Sh

0101100
-10 0 +12 0 -9 0 +8 0 -7 0 -6 0 *
So

0100000
+5 0 *
So

0100000
+4 0 *
Co

1100000
-53 0 +53 1 -52 0 +51 0 -50 0 +50 1 +49 0 -48 0 -47 0 +47 2 
+46 0 -46 2 -45 0 +44 0 -43 1 +42 0 -41 0 +40 0 -40 1 +39 0 
-38 0 -37 2 +36 1 +35 0 +34 0 -33 2 +32 0 -31 0 -30 0 +31 2 
+29 2 +28 0 -27 0 -26 0 -25 0 +24 0 -23 0 -22 0 -21 0 -20 0 
+19 0 -18 0 -17 0 -16 0 -15 0 -14 0 +13 0 -12 0 -11 0 -10 0 
-9 0 +8 0 -7 0 -6 0 +5 0 +4 0 +3 0 +2 0 *

+1 0 