DBRep_DrawableShape

CASCADE Topology V1, (c) Matra-Datavision
Locations 2
1
            0.5 -0.612372435695795 0.612372435695795            -0.5 
0.612372435695795            0.75            0.25 0.612372435695795 
-0.612372435695795            0.25            0.75 -0.612372435695795 
2  1 -1 0
Curve2ds 20
1 -1 0 -1 0 
1 -0.5 0.86602540378443882 -0.49999999999999989 0.8660254037844386 
1 -0.50000000000000011 -0.50000000000000022 1 -2.7755575615628914e-17 
1 0 0 0 1 
1 1.0471975511965976 0 0 1 
1 0.5 -0.50000000000000022 -5.5511151231257827e-17 1 
1 2.1213203435596428 5.5511151231257827e-17 -0.94280904158206336 0.33333333333333331 
1 1.0606601717798214 1.8371173070873839 -0.76007965538584454 -0.6498299142610594 
1 0.50000000000000011 0.5 -1 2.7755575615628914e-17 
1 0 0 0 1 
1 1.0471975511965976 0 0 1 
1 -0.50000000000000022 0.5 5.5511151231257827e-17 -1 
2 0 0 -1 0 0 1 1
1 0 1 1 0 
2 0 0 -1 0 0 1 2
1 0 0 1 0 
1 0 1 1 0 
2 0 0 1 2.6168207644729581e-17 -2.6168207644729581e-17 1 2.1213203435596424
2 0 0 0.96225044864937626 0.27216552697590868 -0.27216552697590868 0.96225044864937626 1.2247448713915889
1 0 0 1 0 
Curves 8
1 0 0 0 1 0 0 
1 1 0 0 0 1 0 
1 1 1 0 -1 0 0 
1 0 1 0 0 -1 0 
2 -1 0 0 0 0.70710678118654746 0.70710678118654746 1 0 -0 -0 0.70710678118654757 -0.70710678118654757 1
2 -1 0 0 0 0.70710678118654746 0.70710678118654746 1 0 -0 -0 0.70710678118654757 -0.70710678118654757 2
2 -1 0.49999999999999989 0.49999999999999989 0 0.70710678118654746 0.70710678118654746 0.94280904158206336 0.23570226039551587 -0.23570226039551587 -0.33333333333333331 0.66666666666666663 -0.66666666666666663 2.1213203435596424
2 -1 0.49999999999999989 0.49999999999999989 0 0.70710678118654746 0.70710678118654746 0.81649658092772615 0.40824829046386302 -0.40824829046386302 -0.57735026918962573 0.57735026918962584 -0.57735026918962584 1.2247448713915889
Polygon3D 0
PolygonOnTriangulations 0
Surfaces 5
1 -1 0 0 0 0.70710678118654746 0.70710678118654746 -1 -0 0 -0 0.70710678118654757 -0.70710678118654757 
1 0.5 0.5 0 0 0 1 1 0 -0 -0 1 0 
7 -1 0 0 0 0.70710678118654746 0.70710678118654746 
8 0 1
1 1 0 0 0 1 0 
1 -1 0.49999999999999989 0.49999999999999989 0 0.70710678118654746 0.70710678118654746 0.94280904158206336 0.23570226039551587 -0.23570226039551587 -0.33333333333333331 0.66666666666666663 -0.66666666666666663 
7 -1 0 0 0 0.70710678118654746 0.70710678118654746 
8 0 1
1 0 1 0 0 -1 0 
Triangulations 0

TShapes 25
Ve
1e-07
0 0 0
0 0

0101101
*
Ve
1e-07
1 0 0
0 0

0101101
*
Ve
1e-07
1 1 0
0 0

0101101
*
Ve
1e-07
0 1 0
0 0

0101101
*
Ed
 1e-07 1 1 0
1  1 0 0 1
2  1 1 0 0 1
2  2 1 2 0 1
2  3 2 0 0 1
0

0101000
+25 0 -24 0 *
Ed
 1e-07 1 1 0
1  2 0 0 1
2  4 3 0 0 1
2  5 3 2 0 1
2  6 2 0 0 1
0

0101000
+24 0 -23 0 *
Ed
 1e-07 1 1 0
1  3 0 0 1
2  7 4 0 0 1
2  8 4 2 0 1
2  9 2 0 0 1
0

0101000
+23 0 -22 0 *
Ed
 1e-07 1 1 0
1  4 0 0 1
2  10 5 0 0 1
2  11 5 2 0 1
2  12 2 0 0 1
0

0101000
+22 0 -25 0 *
Ed
 1e-07 1 1 0
1  5 0 0 1.0471975511966
2  13 1 0 0 1.0471975511966
2  14 5 0 0 1.0471975511966
0

0101000
+25 0 -25 1 *
Ed
 1e-07 1 1 0
1  6 0 0 1.0471975511966
2  15 1 0 0 1.0471975511966
2  16 3 0 0 1.0471975511966
0

0101000
+24 0 -24 1 *
Ed
 1e-07 1 1 0
1  7 0 0 1.0471975511966
2  17 3 0 0 1.0471975511966
2  18 4 0 0 1.0471975511966
0

0101000
+23 0 -23 1 *
Ed
 1e-07 1 1 0
1  8 0 0 1.0471975511966
2  19 4 0 0 1.0471975511966
2  20 5 0 0 1.0471975511966
0

0101000
+22 0 -22 1 *
Wi

0101100
+21 0 +20 0 +19 0 +18 0 *
Wi

0101100
+17 0 -16 0 -21 0 +21 1 *
Wi

0101100
+16 0 -15 0 -20 0 +20 1 *
Wi

0101100
+15 0 -14 0 -19 0 +19 1 *
Wi

0101100
+14 0 -17 0 -18 0 +18 1 *
Fa
0  1e-07 2 0

0111000
+13 0 *
Fa
0  1e-07 1 0

0111000
+12 0 *
Fa
0  1e-07 3 0

0111000
+11 0 *
Fa
0  1e-07 4 0

0111000
+10 0 *
Fa
0  1e-07 5 0

0111000
+9 0 *
Sh

0101100
+7 0 +6 0 +5 0 +4 0 +8 0 -8 1 *
So

0100000
+3 0 *
Co

1100000
+25 0 +24 0 +23 0 +22 0 -25 1 +24 1 +23 1 +22 1 +21 0 +20 0 
+19 0 +18 0 +17 0 -16 0 +21 1 -15 0 +20 1 -14 0 +19 1 +18 1 
+13 0 +12 0 +11 0 +10 0 +9 0 -13 1 +8 0 +7 0 +6 0 +5 0 
+4 0 -8 1 +3 0 +2 0 *

+1 0 