DBRep_DrawableShape

CASCADE Topology V1, (c) Matra-Datavision
Locations 6
1
              1               0               0               0 
              0               1               0               0 
              0               0               1               1 
1
              1               0               0               0 
              0               1               0               1 
              0               0               1               0 
2  1 1 2 1 0
2  1 -1 0
2  2 -1 0
2  2 -1 1 -1 0
Curve2ds 20
1 0 0 1 0 
1 0 -1 1 0 
1 0 0 1 0 
1 0 -1 1 0 
1 0 0 1 0 
1 0 -1 1 0 
1 0 0 0 -1 
1 0 0 1 0 
1 0 -1 1 0 
1 10.530996382411796 0 0 -1 
1 0 0 1 0 
1 0 -1 1 0 
1 0 0 0 -1 
1 0 0 0 -1 
1 0 0 0 -1 
1 1 0 0 -1 
1 10.530996382411796 0 0 -1 
1 0 0 0 -1 
1 10.530996382411796 0 0 -1 
1 1 0 0 -1 
Curves 7
7 0 0  3 6 4  0 0 0  0.44695853880226433 0.33369296416623617 -0.088049724271779276  1.796815436630127 1.3859891770771522 -0.049704935701712465  4.4095590575790107 3.4491514653735846 1.3101389590673698  6.9802959054236151 4.6703890389875813 2.024373706362347  9 5 1 
 0 4 1.6401219466856727 1 5.1458315752772936 1 10.530996382411796 4
1 0 0 0 0 0 1 
1 9 5 1 0 0 1 
1 0 0 0 0 1 0 
1 0 0 1 0 1 0 
1 9 5 1 0 1 0 
1 9 5 2 0 1 0 
Polygon3D 0
PolygonOnTriangulations 0
Surfaces 5
6 -0 -0 -1 
7 0 0  3 6 4  0 0 0  0.44695853880226433 0.33369296416623617 -0.088049724271779276  1.796815436630127 1.3859891770771522 -0.049704935701712465  4.4095590575790107 3.4491514653735846 1.3101389590673698  6.9802959054236151 4.6703890389875813 2.024373706362347  9 5 1 
 0 4 1.6401219466856727 1 5.1458315752772936 1 10.530996382411796 4
6 -0 -1 -0 
7 0 0  3 6 4  0 0 0  0.44695853880226433 0.33369296416623617 -0.088049724271779276  1.796815436630127 1.3859891770771522 -0.049704935701712465  4.4095590575790107 3.4491514653735846 1.3101389590673698  6.9802959054236151 4.6703890389875813 2.024373706362347  9 5 1 
 0 4 1.6401219466856727 1 5.1458315752772936 1 10.530996382411796 4
6 -0 -1 -0 
7 0 0  3 6 4  0 0 1  0.44695853880226433 0.33369296416623617 0.91195027572822074  1.796815436630127 1.3859891770771522 0.95029506429828758  4.4095590575790107 3.4491514653735846 2.3101389590673698  6.9802959054236151 4.6703890389875813 3.024373706362347  9 5 2 
 0 4 1.6401219466856727 1 5.1458315752772936 1 10.530996382411796 4
1 0 0 0 1 0 0 0 0 1 0 -1 0 
1 9 5 1 1 0 0 0 0 1 0 -1 0 
Triangulations 0

TShapes 22
Ve
1e-07
0 0 0
0 0

0101101
*
Ve
1e-07
9 5 1
0 0

0101101
*
Ed
 1e-07 1 1 0
1  1 0 0 10.5309963824118
2  1 1 0 0 10.5309963824118
2  2 1 4 0 10.5309963824118
2  3 2 0 0 10.5309963824118
2  4 2 5 0 10.5309963824118
2  5 3 4 0 10.5309963824118
2  6 3 6 0 10.5309963824118
0

0101000
+22 0 -21 0 *
Ed
 1e-07 1 1 0
1  2 0 0 1
2  7 1 0 0 1
2  8 4 0 0 1
2  9 4 5 0 1
0

0101000
+22 0 -22 1 *
Ed
 1e-07 1 1 0
1  3 0 0 1
2  10 1 0 0 1
2  11 5 0 0 1
2  12 5 5 0 1
0

0101000
+21 0 -21 1 *
Ed
 1e-07 1 1 0
1  4 0 0 1
2  13 2 0 0 1
2  14 4 0 0 1
0

0101000
+22 0 -22 2 *
Ed
 1e-07 1 1 0
1  5 0 0 1
2  15 3 0 0 1
2  16 4 0 0 1
0

0101000
+22 1 -22 3 *
Ed
 1e-07 1 1 0
1  6 0 0 1
2  17 2 0 0 1
2  18 5 0 0 1
0

0101000
+21 0 -21 2 *
Ed
 1e-07 1 1 0
1  7 0 0 1
2  19 3 0 0 1
2  20 5 0 0 1
0

0101000
+21 1 -21 3 *
Wi

0101100
+19 0 -18 0 -20 0 +20 1 *
Wi

0101100
+17 0 -16 0 -19 0 +19 2 *
Wi

0101100
+15 0 -14 0 -18 0 +18 2 *
Wi

0101100
+17 0 -15 0 -20 0 +20 2 *
Wi

0101100
+16 0 -14 0 -20 1 +20 3 *
Fa
0  1e-07 1 0

0111000
+13 0 *
Fa
0  1e-07 4 0

0111000
+12 0 *
Fa
0  1e-07 5 0

0111000
+11 0 *
Fa
0  1e-07 2 0

0111000
+10 0 *
Fa
0  1e-07 3 0

0111000
+9 0 *
Sh

0101100
+7 0 -6 0 -5 0 +4 0 +8 0 -8 2 *
So

0100000
-3 0 *
Co

1100000
+22 0 +21 0 -22 1 +21 1 +22 2 -22 3 -21 2 +21 3 +20 0 +19 0 
-18 0 +20 1 -17 0 +16 0 -19 2 +15 0 -14 0 +18 2 +20 2 -20 3 
+13 0 -12 0 +11 0 +10 0 -9 0 +13 2 +8 0 -7 0 +6 0 +5 0 
-4 0 +8 2 -3 0 +2 0 *

+1 0 