DBRep_DrawableShape

CASCADE Topology V1, (c) Matra-Datavision
Locations 38
1
              1               0               0             0.2 
              0               1               0               0 
              0               0               1               0 
1
0.866025403784439               0             0.5               0 
              0               1               0               0 
           -0.5               0 0.866025403784439               0 
2  1 1 2 1 0
1
0.707106781186548               0 0.707106781186547               0 
              0               1               0               0 
-0.707106781186547               0 0.707106781186548               0 
2  1 1 4 1 0
1
0.258819045102521               0 0.965925826289068               0 
              0               1               0               0 
-0.965925826289068               0 0.258819045102521               0 
2  1 1 6 1 0
1
0.866025403784439               0             0.5               0 
              0               1               0               0 
           -0.5               0 0.866025403784439               0 
1
0.707106781186548               0 0.707106781186547               0 
              0               1               0               0 
-0.707106781186547               0 0.707106781186548               0 
1
0.258819045102521               0 0.965925826289068               0 
              0               1               0               0 
-0.965925826289068               0 0.258819045102521               0 
2  1 1 10 1 0
1
0.866025403784439               0             0.5               0 
              0               1               0               0 
           -0.5               0 0.866025403784439               0 
2  1 1 12 1 0
1
0.965925826289068               0 0.258819045102521               0 
              0               1               0               0 
-0.258819045102521               0 0.965925826289068               0 
2  1 1 14 1 12 1 0
2  1 -1 0
2  8 -1 1 -1 0
2  10 -1 1 -1 0
2  9 -1 1 -1 0
2  8 -1 0
2  10 -1 0
2  9 -1 0
2  14 -1 1 -1 0
2  12 -1 1 -1 0
2  12 -1 14 -1 1 -1 0
2  1 1 14 1 0
2  2 -1 1 -1 0
2  6 -1 1 -1 0
2  4 -1 1 -1 0
2  1 1 8 1 0
2  1 1 2 1 8 -1 1 -1 0
2  1 1 9 1 0
2  1 1 4 1 9 -1 1 -1 0
2  1 1 6 1 10 -1 1 -1 0
2  12 1 8 -1 0
2  1 1 12 1 8 -1 0
2  12 1 9 -1 0
2  1 1 14 1 12 1 9 -1 0
Curve2ds 293
2 0 0 -1 0 0 1 1.2
1 0 0.20000000000000001 1 0 
8 0.5235987755982987 0.78539816339744828
1 0 0.20000000000000001 1 0 
2 -0 0 -1 0 0 1 1.2
1 0.25 0.5 -1 0 
1 0.5 0.5 -1 0 
1 1.2 0 -1 0 
1 1.0392304845413265 0.59999999999999998 -0.86602540378443871 -0.49999999999999994 
1 1.2 0 -1 0 
1 0.31058285412302489 1.159110991546882 -0.25881904510252074 -0.96592582628906831 
1 1.2 0 -1 0 
1 0.84852813742385713 0.84852813742385691 -0.70710678118654757 -0.70710678118654746 
1 0.24999999999999978 0.5 -1 0 
2 0 0 1 0 -0 1 1.2
1 0 0 1 0 
1 0 0 0 1 
1 0.52359877559829882 0 0 1 
1 0 0 0 1 
1 1.3089969389957472 0 0 1 
1 0 0 0 1 
1 0.78539816339744828 0 0 1 
1 0.24999999999999978 0.5 0 -1 
1 0 0 0 1 
1 0.52359877559829882 0 0 1 
1 0 0 0 1 
1 1.3089969389957472 0 0 1 
1 0 0 0 1 
1 0.78539816339744828 0 0 1 
1 0.24999999999999978 -0.29999999999999999 0 1 
1 -0.25 -0.5 1 0 
1 0 -0.5 1 0 
1 -0.69999999999999996 0 -1 0 
1 -0.60621778264910708 0.34999999999999998 -0.86602540378443871 0.49999999999999994 
1 -0.69999999999999996 0 -1 0 
1 -0.18117333157176452 0.67614807840234781 -0.25881904510252074 0.96592582628906831 
1 -0.69999999999999996 0 -1 0 
1 -0.49497474683058329 0.49497474683058323 -0.70710678118654757 0.70710678118654746 
1 -0.25000000000000022 -0.5 1 0 
1 0 0 0 1 
1 0.52359877559829882 0 0 1 
1 0 0 0 1 
1 1.3089969389957472 0 0 1 
1 0 0 0 1 
1 0.78539816339744828 0 0 1 
1 0.24999999999999978 -0.29999999999999999 0 -1 
1 0 0.60000000000000009 1 0 
1 0 0.19999999999999996 1 0 
1 0 0 1 0 
1 0 0 1 0 
2 0 0 -1 0 0 1 1.2
1 0 0.20000000000000001 1 0 
1 -1.2 0 -1 0 
1 -1.159110991546882 0.31058285412302489 -0.96592582628906831 0.25881904510252074 
1 -0.099999999999999811 -0.29999999999999999 1 0 
2 0 0 -1 0 0 1 1.3999999999999999
1 0 0 1 0 
1 0 0 0 1 
1 0.26179938779914941 0 0 1 
1 0.10000000000000012 -0.29999999999999999 0 1 
1 1.3999999999999999 0 -1 0 
1 1.3522961568046956 0.36234666314352904 -0.96592582628906831 -0.25881904510252074 
1 0.10000000000000012 0.30000000000000004 -1 0 
1 0 0.60000000000000009 1 0 
2 0 0 1 0 -0 1 1.3999999999999999
1 0 3.1415926535897931 1 0 
1 0 3.1415926535897931 1 0 
8 0 0.52359877559829882
1 0 3.1415926535897931 1 0 
8 0 0.52359877559829882
1 0 3.1415926535897931 1 0 
8 0 0.52359877559829882
1 0 3.1415926535897931 1 0 
8 0 0.52359877559829882
1 0 3.1415926535897931 1 0 
1 0 1.5707963267948966 1 0 
1 0 0.55000000000000004 1 0 
8 0 0.52359877559829882
1 0 1.5707963267948966 1 0 
8 0 0.52359877559829882
1 0 0.55000000000000004 1 0 
8 0 0.52359877559829882
1 0 1.5707963267948966 1 0 
8 0 0.52359877559829882
1 0 0.55000000000000004 1 0 
1 0 4.7123889803846897 1 0 
1 0 0.44999999999999996 1 0 
8 0 0.52359877559829882
1 0 4.7123889803846897 1 0 
8 0 0.52359877559829882
1 0 0.44999999999999996 1 0 
8 0 0.52359877559829882
1 0 4.7123889803846897 1 0 
8 0 0.52359877559829882
1 0 0.44999999999999996 1 0 
2 0 0 -1 0 0 1 0.20000000000000001
1 0 1 1 0 
8 0 0.52359877559829882
1 0 1 1 0 
8 0 0.52359877559829882
1 0 1 1 0 
2 -0 0 -1 0 0 1 0.20000000000000001
2 -0 0 -1 0 0 1 0.20000000000000001
1 0 0 1 0 
2 0 0 1 0 -0 1 0.20000000000000001
8 0 0.52359877559829882
1 0 0 1 0 
8 0 0.52359877559829882
1 0 0 1 0 
2 0 0 1 0 -0 1 0.20000000000000001
2 0 0 1 0 -0 1 0.20000000000000001
2 0 0 1 0 -0 1 0.69999999999999996
1 0 0 1 0 
8 0 0.52359877559829882
1 0 0 1 0 
8 0 0.52359877559829882
1 0 0 1 0 
8 0 0.52359877559829882
1 0 0 1 0 
8 0 0.52359877559829882
1 0 0 1 0 
8 0 0.52359877559829882
1 0 0 1 0 
2 0 0 1 0 -0 1 0.69999999999999996
2 0 0 1 0 -0 1 0.69999999999999996
2 0 0 1 0 -0 1 0.69999999999999996
2 0 0 1 0 -0 1 0.69999999999999996
2 0 0 1 0 -0 1 0.69999999999999996
1 0 1 1 0 
2 0 0 -1 0 0 1 0.69999999999999996
8 0 0.52359877559829882
1 0 1 1 0 
8 0 0.52359877559829882
1 0 1 1 0 
8 0 0.52359877559829882
1 0 1 1 0 
8 0 0.52359877559829882
1 0 1 1 0 
8 0 0.52359877559829882
1 0 1 1 0 
2 -0 0 -1 0 0 1 0.69999999999999996
2 -0 0 -1 0 0 1 0.69999999999999996
2 -0 0 -1 0 0 1 0.69999999999999996
2 -0 0 -1 0 0 1 0.69999999999999996
2 -0 0 -1 0 0 1 0.69999999999999996
8 0 0.5235987755982987
1 0 0 1 0 
8 0 0.52359877559829882
1 0 0 1 0 
2 0 0 1 0 -0 1 1.2
2 0 0 1 0 -0 1 1.2
8 0 0.5235987755982987
1 0 0.60000000000000009 1 0 
8 0 0.52359877559829882
1 0 0.60000000000000009 1 0 
8 0 0.5235987755982987
1 0 0.19999999999999996 1 0 
8 0 0.52359877559829882
1 0 0.19999999999999996 1 0 
8 0 0.52359877559829882
1 0 0.20000000000000001 1 0 
8 0 0.5235987755982987
1 0 0.20000000000000001 1 0 
2 -0 0 -1 0 0 1 1.2
2 -0 0 -1 0 0 1 1.2
8 0 0.52359877559829882
1 0 0 1 0 
8 0 0.5235987755982987
1 0 0 1 0 
8 0 0.5235987755982987
1 0 0 1 0 
8 0 0.52359877559829882
1 0 0 1 0 
2 3.1068680086566418e-17 0 -1 0 -0 -1 0.049999999999999989
2 -0.5 0 -1 0 -0 -1 0.049999999999999989
1 0 0 0 1 
1 0.52359877559829882 0 0 1 
1 0 0 0 1 
1 1.3089969389957472 0 0 1 
1 0 0 0 1 
1 0.78539816339744828 0 0 1 
7 0 0  1 2 2  0.52359877559829882 1.5707963267948966  0.52359877559829882 3.1415926535897931 
 1.5707963267948966 2 3.1415926535897931 2
7 0 0  1 2 2  0.52359877559829882 1.5707963267948966  0.52359877559829882 3.1415926535897931 
 1.5707963267948966 2 3.1415926535897931 2
7 0 0  1 2 2  0.78539816339744828 1.5707963267948966  0.78539816339744828 3.1415926535897931 
 1.5707963267948966 2 3.1415926535897931 2
2 3.1068680086566418e-17 0 -1 0 -0 -1 0.050000000000000003
2 -0.5 0 -1 0 -0 -1 0.050000000000000003
1 0 0 0 1 
1 0.52359877559829882 0 0 1 
1 0 0 0 1 
1 1.3089969389957472 0 0 1 
1 0 0 0 1 
1 0.78539816339744828 0 0 1 
7 0 0  1 2 2  0.52359877559829882 3.1415926535897931  0.52359877559829882 4.7123889803846897 
 3.1415926535897931 2 4.7123889803846897 2
7 0 0  1 2 2  0.52359877559829882 3.1415926535897931  0.52359877559829882 4.7123889803846897 
 3.1415926535897931 2 4.7123889803846897 2
7 0 0  1 2 2  0.78539816339744806 3.1415926535897931  0.78539816339744828 4.7123889803846897 
 3.1415926535897931 2 4.7123889803846897 2
1 -0.5 0.5 0 -1 
1 0 0 0 1 
1 0.52359877559829882 0 0 1 
1 0 0 0 1 
1 1.3089969389957472 0 0 1 
1 0 0 0 1 
1 0.78539816339744828 0 0 1 
1 0.52359877559829882 0 0 1 
1 0.78539816339744817 0 0 1 
1 0.52359877559829882 0 0 1 
1 0.5 0.5 -1 0 
1 1.2 0 -1 0 
1 1.0392304845413265 0.59999999999999998 -0.86602540378443871 -0.49999999999999994 
1 1.2 0 -1 0 
1 0.31058285412302489 1.159110991546882 -0.25881904510252074 -0.96592582628906831 
1 1.2 0 -1 0 
1 0.84852813742385713 0.84852813742385691 -0.70710678118654757 -0.70710678118654746 
1 -0.25 0.5 0 -1 
1 0 0.5 0 -1 
1 0 0 0 1 
1 0.52359877559829882 0 0 1 
1 0 0 0 1 
1 0.52359877559829882 0 0 1 
1 0 0 0 1 
1 1.3089969389957472 0 0 1 
1 0 0 0 1 
1 1.3089969389957472 0 0 1 
1 0 0 0 1 
1 0.78539816339744828 0 0 1 
1 0 0 0 1 
1 0.78539816339744828 0 0 1 
1 -0.25000000000000022 0.5 0 -1 
1 -0.5 -0.5 1 0 
1 -0.20000000000000001 0 -1 0 
1 -0.17320508075688776 0.099999999999999992 -0.86602540378443871 0.49999999999999994 
1 -0.20000000000000001 0 -1 0 
1 -0.051763809020504148 0.19318516525781368 -0.25881904510252074 0.96592582628906831 
1 -0.20000000000000001 0 -1 0 
1 -0.14142135623730953 0.1414213562373095 -0.70710678118654757 0.70710678118654746 
1 0 0 0 1 
1 0.52359877559829882 0 0 1 
1 0 0 0 1 
1 1.3089969389957472 0 0 1 
1 0 0 0 1 
1 0.78539816339744828 0 0 1 
1 0.52359877559829882 0 0 1 
1 0.78539816339744817 0 0 1 
1 0.52359877559829882 0 0 1 
8 0.52359877559829882 0.78539816339744806
1 0 3.1415926535897931 1 0 
8 0.52359877559829882 0.78539816339744806
1 0 3.1415926535897931 1 0 
8 0.52359877559829882 0.78539816339744828
1 0 1.5707963267948966 1 0 
8 0.52359877559829882 0.78539816339744828
1 0 0.55000000000000004 1 0 
1 -0.17320508075688776 0.099999999999999992 -0.86602540378443871 0.49999999999999994 
1 -0.17320508075688776 0.099999999999999992 -0.86602540378443871 0.49999999999999994 
1 0.52359877559829882 0 0 1 
1 0.52359877559829882 0 0 1 
1 0.52359877559829882 0 0 1 
1 0.52359877559829882 0 0 1 
8 0 1
1 0.52359877559829882 0 0 1 
1 0 0.5 0 -1 
1 1.0392304845413265 0.59999999999999998 -0.86602540378443871 -0.49999999999999994 
1 1.0392304845413265 0.59999999999999998 -0.86602540378443871 -0.49999999999999994 
1 0 4.7123889803846897 1 0 
1 0 0.44999999999999996 1 0 
8 0.52359877559829882 0.78539816339744828
1 0 4.7123889803846897 1 0 
8 0.52359877559829882 0.78539816339744828
1 0 0.44999999999999996 1 0 
1 -0.14142135623730953 0.1414213562373095 -0.70710678118654757 0.70710678118654746 
1 0.78539816339744828 0 0 1 
1 0.78539816339744828 0 0 1 
8 0 1
1 0.78539816339744828 0 0 1 
1 0 0.5 0 -1 
1 0.84852813742385713 0.84852813742385691 -0.70710678118654757 -0.70710678118654746 
2 0 0 -1 0 0 1 0.20000000000000001
1 0 1 1 0 
8 0.52359877559829882 0.78539816339744828
1 0 1 1 0 
2 -0 0 -1 0 0 1 0.20000000000000001
8 0.52359877559829882 0.78539816339744828
1 0 1 1 0 
8 0.52359877559829882 0.78539816339744828
1 0 1 1 0 
8 0.52359877559829882 0.78539816339744828
1 0 1 1 0 
2 -0 0 -1 0 0 1 0.69999999999999996
2 -0 0 -1 0 0 1 0.69999999999999996
2 -0 0 -1 0 0 1 0.69999999999999996
8 0.52359877559829882 0.78539816339744828
1 0 0 1 0 
2 0 0 1 0 -0 1 0.20000000000000001
2 0 0 1 0 -0 1 0.69999999999999996
1 0 0 1 0 
8 0.52359877559829882 0.78539816339744828
1 0 0 1 0 
8 0.52359877559829882 0.78539816339744828
1 0 0 1 0 
8 0.52359877559829882 0.78539816339744828
1 0 0 1 0 
2 0 0 1 0 -0 1 0.69999999999999996
2 0 0 1 0 -0 1 0.69999999999999996
2 0 0 1 0 -0 1 0.69999999999999996
1 0 3.1415926535897931 1 0 
1 0 3.1415926535897931 1 0 
1 0 1.5707963267948966 1 0 
1 0 0.55000000000000004 1 0 
8 0 1
1 1.3089969389957472 0 0 1 
1 0 0.5 0 -1 
1 0 1 1 0 
2 0 0 -1 0 0 1 0.69999999999999996
8 0.78539816339744828 1.3089969389957472
1 0 1 1 0 
2 -0 0 -1 0 0 1 0.69999999999999996
1 0 0 1 0 
2 0 0 1 0 -0 1 0.20000000000000001
8 0.78539816339744828 1.3089969389957472
1 0 0 1 0 
2 0 0 1 0 -0 1 0.69999999999999996
1 1.0392304845413265 0.59999999999999998 -0.86602540378443871 -0.49999999999999994 
1 1.0392304845413265 0.59999999999999998 -0.86602540378443871 -0.49999999999999994 
1 0.84852813742385713 0.84852813742385691 -0.70710678118654757 -0.70710678118654746 
2 0 0 1 0 -0 1 1.2
1 0 0 1 0 
8 0.5235987755982987 0.78539816339744828
1 0 0 1 0 
2 0 0 1 0 -0 1 1.2
1 0.5235987755982987 0 0 1 
1 0.5235987755982987 0 0 1 
1 0.5235987755982987 0 0 1 
1 0.5235987755982987 0 0 1 
8 0 0.60000000000000009
1 0 0.60000000000000009 -0 -1 
1 -0.0999999999999997 -0.29999999999999999 0 1 
1 -0.60621778264910708 0.34999999999999998 -0.86602540378443871 0.49999999999999994 
1 -0.60621778264910708 0.34999999999999998 -0.86602540378443871 0.49999999999999994 
1 0.5235987755982987 0 0 1 
1 0.5235987755982987 0 0 1 
1 0.78539816339744828 0 0 1 
1 0.78539816339744828 0 0 1 
8 0 0.60000000000000009
1 0.26179938779914941 0.60000000000000009 -0 -1 
1 -0.099999999999999881 -0.29999999999999999 0 1 
1 -0.49497474683058329 0.49497474683058323 -0.70710678118654757 0.70710678118654746 
1 0.78539816339744828 0 0 1 
8 0.5235987755982987 0.78539816339744828
1 0 0.60000000000000009 1 0 
8 0.5235987755982987 0.78539816339744828
1 0 0.19999999999999996 1 0 
8 0.5235987755982987 0.78539816339744806
1 -0.5235987755982987 0 1 0 
2 0 0 0.86602540378443871 -0.49999999999999994 0.49999999999999994 0.86602540378443871 1.2
8 0.5235987755982987 0.78539816339744828
1 0 0 1 0 
8 0.5235987755982987 0.78539816339744828
1 0 0 1 0 
8 0.5235987755982987 0.78539816339744806
1 -0.5235987755982987 0.60000000000000009 1 0 
2 0 0 -0.86602540378443871 -0.49999999999999994 -0.49999999999999994 0.86602540378443871 1.2
Curves 36
2 0 0 0 0 1 0 1 0 0 0 0 -1 1.2
1 1 1 0 -1 0 0 
2 0 1 0 0 1 0 1 0 0 0 0 -1 1.2
1 1.2 1 0 0 -1 0 
1 1.2 0.20000000000000001 0 0 1 0 
1 0.5 0 0 1 0 0 
1 1.2 0.20000000000000001 0 0 -1 0 
2 0 0.80000000000000004 0 0 1 0 1 0 0 0 0 -1 1.2
2 0 0.20000000000000001 0 0 1 0 1 0 0 0 0 -1 1.2
2 0 0 0 0 1 0 1 0 0 0 0 -1 1.2
1 1 0.20000000000000001 0 1 0 0 
2 0 0.20000000000000001 0 0 1 0 1 0 0 0 0 -1 1.3999999999999999
1 1.2 0.20000000000000001 0 0 1 0 
1 1.2 0.80000000000000004 0 -1 0 0 
2 0 0.80000000000000004 0 0 1 0 1 0 0 0 0 -1 1.3999999999999999
2 0 0.5 0 0 1 0 1 0 0 0 0 -1 0.25
2 0 0.45000000000000001 0 0 1 0 1 0 0 0 0 -1 0.20000000000000001
2 0 0.55000000000000004 0 0 1 0 1 0 0 0 0 -1 0.20000000000000001
2 0 0 0 0 1 0 1 0 0 0 0 -1 0.20000000000000001
2 0 1 0 0 1 0 1 0 0 0 0 -1 0.20000000000000001
2 0 1 0 0 1 0 1 0 0 0 0 -1 0.69999999999999996
2 0 0 0 0 1 0 1 0 0 0 0 -1 0.69999999999999996
2 0 0.5 0 -0 -0 1 -1 0 0 -0 -1 -0 0.049999999999999989
2 0 0.5 0 -0 -0 1 -1 0 0 -0 -1 -0 0.050000000000000003
1 0 1 0 0 -1 0 
1 1 1 0 -1 0 0 
1 0.5 1 0 0 -1 0 
1 0 0 0 1 0 0 
2 0 0.55000000000000004 0 0 1 0 1 0 0 0 0 -1 0.20000000000000001
2 0 0 0 0 1 0 1 0 0 0 0 -1 0.20000000000000001
2 0 1 0 0 1 0 1 0 0 0 0 -1 0.69999999999999996
2 0 0.5 0 0 1 0 1 0 0 0 0 -1 0.25
2 0 0.45000000000000001 0 0 1 0 1 0 0 0 0 -1 0.20000000000000001
2 0 0 0 0 1 0 1 0 0 0 0 -1 0.69999999999999996
2 0 1 0 0 1 0 1 0 0 0 0 -1 0.20000000000000001
2 0 1 0 0 1 0 1 0 0 0 0 -1 1.2
Polygon3D 0
PolygonOnTriangulations 0
Surfaces 48
1 0 0 0 0 1 0 -1 -0 -0 0 0 -1 
2 0 0.20000000000000001 0 -0 -1 -0 1 -0 0 0 -0 -1 1.2
2 0 0.20000000000000001 0 -0 -1 -0 1 -0 0 0 -0 -1 1.2
1 0 0 0 0 1 0 -1 -0 -0 0 0 -1 
1 0.75 0.5 0 0 0 1 1 0 -0 -0 1 0 
1 0.5 0.5 0 0 0 1 1 0 -0 -0 1 0 
1 0 1 0 0 1 0 1 0 0 0 0 -1 
1 0 1 0 0 1 0 1 0 0 0 0 -1 
1 0 1 0 0 1 0 1 0 0 0 0 -1 
1 0.95000000000000018 0.5 0 0 0 1 1 0 -0 -0 1 0 
2 0 1 0 -0 -1 -0 1 -0 0 0 -0 -1 1.2
2 0 1 0 -0 -1 -0 1 -0 0 0 -0 -1 1.2
2 0 1 0 -0 -1 -0 1 -0 0 0 -0 -1 1.2
2 0 0.20000000000000001 0 0 1 0 1 0 0 0 0 -1 1.2
2 0 0.20000000000000001 0 0 1 0 1 0 0 0 0 -1 1.2
2 0 0.20000000000000001 0 0 1 0 1 0 0 0 0 -1 1.2
1 0 0 0 0 1 0 -1 -0 -0 0 0 -1 
2 0 0.20000000000000001 0 -0 -1 -0 1 -0 0 0 -0 -1 1.2
1 0 0.20000000000000001 0 0 1 0 -1 -0 -0 0 0 -1 
1 1.0999999999999999 0.5 0 0 0 1 1 0 -0 -0 1 0 
2 0 0.20000000000000001 0 0 1 0 1 0 0 0 0 -1 1.3999999999999999
1 0 0.80000000000000004 0 0 1 0 1 0 0 0 0 -1 
7 0 0 0 0 1 0 
8 1.5707963267948966 3.1415926535897931
2 0.20000000000000001 0.5 0 0 -0 1 -1 0 0 -0 -1 -0 0.049999999999999989
7 0 0 0 0 1 0 
8 3.1415926535897931 4.7123889803846897
2 0.20000000000000001 0.5 0 0 -0 1 -1 0 0 -0 -1 -0 0.050000000000000003
7 0 0 0 0 1 0 
8 1.5707963267948966 3.1415926535897931
2 0.20000000000000001 0.5 0 0 -0 1 -1 0 0 -0 -1 -0 0.049999999999999989
7 0 0 0 0 1 0 
8 3.1415926535897931 4.7123889803846897
2 0.20000000000000001 0.5 0 0 -0 1 -1 0 0 -0 -1 -0 0.050000000000000003
7 0 0 0 0 1 0 
8 1.5707963267948966 3.1415926535897931
2 0.20000000000000001 0.5 0 0 -0 1 -1 0 0 -0 -1 -0 0.049999999999999989
7 0 0 0 0 1 0 
8 3.1415926535897931 4.7123889803846897
2 0.20000000000000001 0.5 0 0 -0 1 -1 0 0 -0 -1 -0 0.050000000000000003
2 0 1 0 -0 -1 -0 1 -0 0 0 -0 -1 0.20000000000000001
2 0 1 0 -0 -1 -0 1 -0 0 0 -0 -1 0.20000000000000001
2 0 1 0 -0 -1 -0 1 -0 0 0 -0 -1 0.20000000000000001
2 0 1 0 -0 -1 -0 1 -0 0 0 -0 -1 0.20000000000000001
2 0 1 0 -0 -1 -0 1 -0 0 0 -0 -1 0.20000000000000001
2 0 1 0 -0 -1 -0 1 -0 0 0 -0 -1 0.20000000000000001
1 0 0 0 0 1 0 -1 -0 -0 0 0 -1 
1 0 0 0 0 1 0 -1 -0 -0 0 0 -1 
1 0 0 0 0 1 0 -1 -0 -0 0 0 -1 
1 0 1 0 0 1 0 1 0 0 0 0 -1 
1 0 1 0 0 1 0 1 0 0 0 0 -1 
1 0 1 0 0 1 0 1 0 0 0 0 -1 
2 0 1 0 -0 -1 -0 1 -0 0 0 -0 -1 0.69999999999999996
2 0 1 0 -0 -1 -0 1 -0 0 0 -0 -1 0.69999999999999996
2 0 1 0 -0 -1 -0 1 -0 0 0 -0 -1 0.69999999999999996
2 0 1 0 -0 -1 -0 1 -0 0 0 -0 -1 0.69999999999999996
2 0 1 0 -0 -1 -0 1 -0 0 0 -0 -1 0.69999999999999996
2 0 1 0 -0 -1 -0 1 -0 0 0 -0 -1 0.69999999999999996
1 -3.1068680086566418e-17 0.5 0 0 0 1 1 0 -0 -0 1 0 
2 0 0.80000000000000004 0 -0 -1 -0 1 -0 0 0 -0 -1 1.2
Triangulations 0

TShapes 210
Ve
1e-07
0 0.5 0
0 0

0101101
*
Ve
1.00000000111022e-07
1 0.2 0
0 0

0101101
*
Ve
1.00000000111022e-07
1 0.8 0
0 0

0101101
*
Ve
5.000001e-06
0 0.45 0
0 0

0101101
*
Ve
5.000001e-06
0.05 0.5 0
0 0

0101101
*
Ve
5.000001e-06
0 0.55 0
0 0

0101101
*
Ve
2.12133034355964e-07
0 1 0
0 0

0101101
*
Ve
1.00000000111022e-07
0.5 1 0
0 0

0101101
*
Ve
1.00000000111022e-07
0.5 0 0
0 0

0101101
*
Ve
2.12133034355964e-07
0 0 0
0 0

0101101
*
Ve
2.12133034512973e-07
1.2 0 0
0 0

0101101
*
Ve
2.12133034512973e-07
1.2 1 0
0 0

0101101
*
Ve
2.12133034512973e-07
0.606217782649107 0 -0.35
0 0

0101101
*
Ve
2.12133034512973e-07
0.606217782649107 1 -0.35
0 0

0101101
*
Ve
2.12133034512973e-07
0.494974746830583 0 -0.494974746830583
0 0

0101101
*
Ve
2.12133034512973e-07
0.494974746830583 1 -0.494974746830583
0 0

0101101
*
Ve
1.00000000111022e-07
0.181173331571765 0 -0.676148078402348
0 0

0101101
*
Ve
1.00000000111022e-07
0.181173331571765 1 -0.676148078402348
0 0

0101101
*
Ve
1.00001000111022e-07
1.03923048454133 0.8 -0.6
0 0

0101101
*
Ve
1.00001000111022e-07
1.03923048454133 0.2 -0.6
0 0

0101101
*
Ve
1.00001000111022e-07
0.848528137423857 0.8 -0.848528137423857
0 0

0101101
*
Ve
1.00001000111022e-07
0.848528137423857 0.2 -0.848528137423857
0 0

0101101
*
Ve
1e-07
1.2 0.2 0
0 0

0101101
*
Ve
1e-07
1.2 0.8 0
0 0

0101101
*
Ed
 1.00000000111022e-07 1 1 0
1  1 0 0.523598775598299 0.785398163397448
2  1 1 0 0.523598775598299 0.785398163397448
2  2 2 0 0.523598775598299 0.785398163397448
2  3 3 0 0.523598775598299 0.785398163397448
2  4 4 0 0.523598775598299 0.785398163397448
0

0101000
+200 8 -200 9 *
Ed
 1.00000000111022e-07 1 1 0
1  2 0 0 0.5
2  5 5 0 0 0.5
2  6 6 0 0 0.5
2  7 7 16 0 0.5
2  8 7 17 0 0.5
2  9 8 16 0 0.5
2  10 8 18 0 0.5
2  11 9 16 0 0.5
2  12 9 19 0 0.5
2  13 10 16 0 0.5
0

0101000
+199 16 -193 18 *
Ed
 1.00000000111022e-07 1 1 0
1  3 0 0.785398163397448 1.30899693899575
2  14 8 0 0.785398163397448 1.30899693899575
2  15 11 0 0.785398163397448 1.30899693899575
0

0101000
+199 9 -199 10 *
Ed
 1.00000000111022e-07 1 1 0
1  4 0 0 0.2
2  16 12 0 0 0.2
2  17 12 20 0 0.2
2  18 11 0 0 0.2
2  19 11 21 0 0.2
2  20 13 0 0 0.2
2  21 13 22 0 0.2
2  22 10 0 0 0.2
0

0101000
+199 0 -208 1 *
Ed
 1.00000000111022e-07 1 1 0
1  5 0 0 0.6
2  23 14 0 0 0.6
2  24 14 20 0 0.6
2  25 15 0 0 0.6
2  26 15 21 0 0.6
2  27 16 0 0 0.6
2  28 16 22 0 0.6
2  29 10 0 0 0.6
0

0101000
+209 1 -208 1 *
Ed
 1.00000000111022e-07 1 1 0
1  6 0 0 0.5
2  30 5 0 0 0.5
2  31 6 0 0 0.5
2  32 17 16 0 0.5
2  33 17 17 0 0.5
2  34 4 16 0 0.5
2  35 4 18 0 0.5
2  36 1 16 0 0.5
2  37 1 19 0 0.5
2  38 10 16 0 0.5
0

0101000
+194 18 -200 16 *
Ed
 1.00000000111022e-07 1 1 0
1  7 0 0 0.2
2  39 18 0 0 0.2
2  40 18 20 0 0.2
2  41 3 0 0 0.2
2  42 3 21 0 0.2
2  43 2 0 0 0.2
2  44 2 22 0 0.2
2  45 10 0 0 0.2
0

0101000
+209 1 -200 0 *
Ed
 1.00000000111022e-07 1 1 0
1  8 0 0.785398163397448 1.30899693899575
2  46 15 0 0.785398163397448 1.30899693899575
2  47 11 0 0.785398163397448 1.30899693899575
4 C2 15 0 11 0
0

0101000
+190 0 -208 11 *
Ed
 1.00000000111022e-07 1 1 0
1  9 0 0.785398163397448 1.30899693899575
2  48 3 0 0.785398163397448 1.30899693899575
2  49 15 0 0.785398163397448 1.30899693899575
4 C2 3 0 15 0
0

0101000
+189 0 -209 11 *
Ed
 1.00000000111022e-07 1 1 0
1  10 0 0.785398163397448 1.30899693899575
2  50 4 0 0.785398163397448 1.30899693899575
2  51 3 0 0.785398163397448 1.30899693899575
0

0101000
+200 9 -200 10 *
Ed
 1e-07 1 1 0
1  11 0 0 0.2
2  52 19 16 0 0.2
2  53 19 23 0 0.2
2  54 20 0 0 0.2
0

0101000
+191 24 -188 0 *
Ed
 1e-07 1 1 0
1  11 0 0 0.2
2  52 19 16 0 0.2
2  53 19 23 0 0.2
2  54 20 0 0 0.2
0

0101000
+189 25 -188 0 *
Ed
 1e-07 1 1 0
1  12 0 0 0.261799387799149
2  55 19 0 0 0.261799387799149
2  56 21 0 0 0.261799387799149
0

0101000
+188 1 -188 26 *
Ed
 1e-07 1 1 0
1  13 0 0 0.6
2  57 21 16 0 0.6
2  58 21 23 0 0.6
2  59 20 0 0 0.6
0

0101000
+188 0 -187 0 *
Ed
 1e-07 1 1 0
1  14 0 0 0.2
2  60 22 16 0 0.2
2  61 22 23 0 0.2
2  62 20 0 0 0.2
0

0101000
+187 0 -192 24 *
Ed
 1e-07 1 1 0
1  14 0 0 0.2
2  60 22 16 0 0.2
2  61 22 23 0 0.2
2  62 20 0 0 0.2
0

0101000
+187 0 -190 25 *
Ed
 1e-07 1 1 0
1  15 0 0 0.261799387799149
2  63 21 0 0 0.261799387799149
2  64 22 0 0 0.261799387799149
0

0101000
+187 1 -187 26 *
Ed
 1e-07 1 1 0
1  16 0 0 0.523598775598299
2  65 23 0 0 0.523598775598299
2  66 24 0 0 0.523598775598299
4 C2 23 0 24 0
2  67 25 0 0 0.523598775598299
2  68 26 0 0 0.523598775598299
2  69 27 0 0 0.523598775598299
2  70 28 0 0 0.523598775598299
0

0101000
+206 1 -206 3 *
Ed
 1e-07 1 1 0
1  17 0 0 0.523598775598299
2  71 23 0 0 0.523598775598299
2  72 29 0 0 0.523598775598299
2  73 25 0 0 0.523598775598299
2  74 30 0 0 0.523598775598299
2  75 27 0 0 0.523598775598299
2  76 31 0 0 0.523598775598299
0

0101000
+207 1 -207 3 *
Ed
 1e-07 1 1 0
1  18 0 0 0.523598775598299
2  77 26 0 0 0.523598775598299
2  78 32 0 0 0.523598775598299
2  79 24 0 0 0.523598775598299
2  80 33 0 0 0.523598775598299
2  81 28 0 0 0.523598775598299
2  82 34 0 0 0.523598775598299
0

0101000
+205 1 -205 3 *
Ed
 1e-07 1 1 0
1  19 0 0 0.523598775598299
2  83 35 0 0 0.523598775598299
2  84 30 0 0 0.523598775598299
2  85 29 0 0 0.523598775598299
2  86 31 0 0 0.523598775598299
2  87 36 0 0 0.523598775598299
2  88 37 0 0 0.523598775598299
0

0101000
+201 1 -201 3 *
Ed
 1e-07 1 1 0
1  20 0 0 0.523598775598299
2  89 33 0 0 0.523598775598299
2  90 38 0 0 0.523598775598299
2  91 32 0 0 0.523598775598299
2  92 34 0 0 0.523598775598299
2  93 39 0 0 0.523598775598299
2  94 40 0 0 0.523598775598299
0

0101000
+204 1 -204 3 *
Ed
 1.00000000111022e-07 1 1 0
1  21 0 0 0.523598775598299
2  95 7 0 0 0.523598775598299
2  96 41 0 0 0.523598775598299
2  97 42 0 0 0.523598775598299
2  98 43 0 0 0.523598775598299
2  99 44 0 0 0.523598775598299
2  100 45 0 0 0.523598775598299
2  101 46 0 0 0.523598775598299
2  102 39 0 0 0.523598775598299
2  103 40 0 0 0.523598775598299
2  104 8 0 0 0.523598775598299
2  105 38 0 0 0.523598775598299
2  106 9 0 0 0.523598775598299
0

0101000
+203 1 -197 0 *
Ed
 1.00000000111022e-07 1 1 0
1  22 0 0 0.523598775598299
2  107 45 0 0 0.523598775598299
2  108 1 0 0 0.523598775598299
2  109 42 0 0 0.523598775598299
2  110 43 0 0 0.523598775598299
2  111 44 0 0 0.523598775598299
2  112 41 0 0 0.523598775598299
2  113 46 0 0 0.523598775598299
2  114 36 0 0 0.523598775598299
2  115 17 0 0 0.523598775598299
2  116 35 0 0 0.523598775598299
2  117 4 0 0 0.523598775598299
2  118 37 0 0 0.523598775598299
0

0101000
+202 1 -198 0 *
Ed
 1.00000000111022e-07 1 1 0
1  3 0 0 0.523598775598299
2  14 8 0 0 0.523598775598299
2  15 11 0 0 0.523598775598299
2  119 13 0 0 0.523598775598299
2  120 12 0 0 0.523598775598299
2  121 7 0 0 0.523598775598299
2  122 9 0 0 0.523598775598299
0

0101000
+199 0 -199 8 *
Ed
 1.00000000111022e-07 1 1 0
1  8 0 0 0.523598775598299
2  46 15 0 0 0.523598775598299
2  47 11 0 0 0.523598775598299
4 C2 15 0 11 0
2  123 16 0 0 0.523598775598299
2  124 14 0 0 0.523598775598299
2  125 13 0 0 0.523598775598299
2  126 12 0 0 0.523598775598299
0

0101000
+208 1 -192 0 *
Ed
 1.00000000111022e-07 1 1 0
1  10 0 0 0.523598775598299
2  50 4 0 0 0.523598775598299
2  51 3 0 0 0.523598775598299
2  127 18 0 0 0.523598775598299
2  128 2 0 0 0.523598775598299
2  129 17 0 0 0.523598775598299
2  130 1 0 0 0.523598775598299
0

0101000
+200 0 -200 8 *
Ed
 1.00000000111022e-07 1 1 0
1  9 0 0 0.523598775598299
2  48 3 0 0 0.523598775598299
2  49 15 0 0 0.523598775598299
4 C2 3 0 15 0
2  131 18 0 0 0.523598775598299
2  132 2 0 0 0.523598775598299
2  133 16 0 0 0.523598775598299
2  134 14 0 0 0.523598775598299
0

0101000
+209 1 -191 0 *
Ed
 1.00000000039252e-07 1 1 0
1  23 0 1.5707963267949 3.14159265358979
2  135 47 0 1.5707963267949 3.14159265358979
2  136 6 0 1.5707963267949 3.14159265358979
2  137 27 16 1.5707963267949 3.14159265358979
2  138 27 27 1.5707963267949 3.14159265358979
2  139 25 16 1.5707963267949 3.14159265358979
2  140 25 28 1.5707963267949 3.14159265358979
2  141 23 16 1.5707963267949 3.14159265358979
2  142 23 29 1.5707963267949 3.14159265358979
2  143 23 27 1.5707963267949 3.14159265358979
2  144 25 27 1.5707963267949 3.14159265358979
2  145 25 29 1.5707963267949 3.14159265358979
0

0101000
+207 0 -206 0 *
Ed
 1.00000000039252e-07 1 1 0
1  24 0 3.14159265358979 4.71238898038469
2  146 47 0 3.14159265358979 4.71238898038469
2  147 6 0 3.14159265358979 4.71238898038469
2  148 28 16 3.14159265358979 4.71238898038469
2  149 28 27 3.14159265358979 4.71238898038469
2  150 26 16 3.14159265358979 4.71238898038469
2  151 26 28 3.14159265358979 4.71238898038469
2  152 24 16 3.14159265358979 4.71238898038469
2  153 24 29 3.14159265358979 4.71238898038469
2  154 24 27 3.14159265358979 4.71238898038469
2  155 26 27 3.14159265358979 4.71238898038469
2  156 26 29 3.14159265358979 4.71238898038469
0

0101000
+206 0 -205 0 *
Ed
 1e-07 1 1 0
1  25 0 0 0.45
2  157 6 0 0 0.45
2  158 34 16 0 0.45
2  159 34 27 0 0.45
2  160 32 16 0 0.45
2  161 32 28 0 0.45
2  162 33 16 0 0.45
2  163 33 29 0 0.45
2  164 32 27 0 0.45
2  165 32 29 0 0.45
2  166 33 27 0 0.45
0

0101000
+204 0 -205 0 *
Ed
 1e-07 1 1 0
1  26 0 0.5 1
2  167 6 0 0.5 1
2  168 39 16 0.5 1
2  169 39 27 0.5 1
2  170 40 16 0.5 1
2  171 40 28 0.5 1
2  172 38 16 0.5 1
2  173 38 29 0.5 1
0

0101000
+203 0 -204 0 *
Ed
 1.00000000111022e-07 1 1 0
1  27 0 0 1
2  174 5 0 0 1
2  175 6 0 0 1
2  176 46 16 0 1
2  177 46 27 0 1
2  178 41 16 0 1
2  179 41 17 0 1
2  180 43 16 0 1
2  181 43 28 0 1
2  182 42 16 0 1
2  183 42 18 0 1
2  184 44 16 0 1
2  185 44 29 0 1
2  186 45 16 0 1
2  187 45 19 0 1
2  188 10 16 0 1
0

0101000
+203 0 -202 0 *
Ed
 1e-07 1 1 0
1  28 0 0 0.5
2  189 6 0 0 0.5
2  190 36 16 0 0.5
2  191 36 27 0 0.5
2  192 35 16 0 0.5
2  193 35 28 0 0.5
2  194 37 16 0 0.5
2  195 37 29 0 0.5
0

0101000
+201 0 -202 0 *
Ed
 1e-07 1 1 0
1  25 0 0.55 1
2  157 6 0 0.55 1
2  196 31 16 0.55 1
2  197 31 27 0.55 1
2  198 30 16 0.55 1
2  199 30 28 0.55 1
2  200 29 16 0.55 1
2  201 29 29 0.55 1
2  202 30 27 0.55 1
2  203 30 29 0.55 1
2  204 29 27 0.55 1
0

0101000
+207 0 -201 0 *
Ed
 1.00000000111022e-07 1 1 0
1  2 0 0 0.5
2  5 5 0 0 0.5
2  6 6 0 0 0.5
2  7 7 16 0 0.5
2  8 7 17 0 0.5
2  9 8 16 0 0.5
2  10 8 18 0 0.5
2  11 9 16 0 0.5
2  12 9 19 0 0.5
2  13 10 16 0 0.5
0

0101000
+199 16 -203 0 *
Ed
 1.00000000111022e-07 1 1 0
1  6 0 0 0.5
2  30 5 0 0 0.5
2  31 6 0 0 0.5
2  32 17 16 0 0.5
2  33 17 17 0 0.5
2  34 4 16 0 0.5
2  35 4 18 0 0.5
2  36 1 16 0 0.5
2  37 1 19 0 0.5
2  38 10 16 0 0.5
0

0101000
+202 0 -200 16 *
Ed
 1e-07 1 1 0
1  16 0 0.523598775598299 0.785398163397448
2  65 23 0 0.523598775598299 0.785398163397448
2  66 24 0 0.523598775598299 0.785398163397448
4 C2 23 0 24 0
2  205 25 0 0.523598775598299 0.785398163397448
2  206 26 0 0.523598775598299 0.785398163397448
0

0101000
+206 3 -206 5 *
Ed
 1e-07 1 1 0
1  17 0 0.523598775598299 0.785398163397448
2  71 23 0 0.523598775598299 0.785398163397448
2  72 29 0 0.523598775598299 0.785398163397448
2  207 25 0 0.523598775598299 0.785398163397448
2  208 30 0 0.523598775598299 0.785398163397448
0

0101000
+207 3 -207 5 *
Ed
 1e-07 1 1 0
1  28 0 0 0.5
2  189 6 0 0 0.5
2  190 36 16 0 0.5
2  191 36 27 0 0.5
2  192 35 16 0 0.5
2  193 35 28 0 0.5
2  194 37 16 0 0.5
2  195 37 29 0 0.5
2  209 35 27 0 0.5
2  210 37 27 0 0.5
0

0101000
+201 0 -198 27 *
Ed
 1.00000000111022e-07 1 1 0
1  27 0 0 1
2  174 5 0 0 1
2  175 6 0 0 1
2  176 46 16 0 1
2  177 46 27 0 1
2  178 41 16 0 1
2  179 41 17 0 1
2  180 43 16 0 1
2  181 43 28 0 1
2  182 42 16 0 1
2  183 42 18 0 1
2  184 44 16 0 1
2  185 44 29 0 1
2  186 45 16 0 1
2  187 45 19 0 1
2  188 10 16 0 1
2  211 42 17 0 1
2  212 43 17 0 1
2  213 44 17 0 1
2  214 45 17 0 1
2  215 46 17 0 1
2  216 6 31 0 1
0

0101000
+197 17 -198 17 *
Ed
 1e-07 1 1 0
1  26 0 0.5 1
2  167 6 0 0.5 1
2  168 39 16 0.5 1
2  169 39 27 0.5 1
2  170 40 16 0.5 1
2  171 40 28 0.5 1
2  172 38 16 0.5 1
2  173 38 29 0.5 1
2  217 40 27 0.5 1
2  218 38 27 0.5 1
0

0101000
+197 27 -204 0 *
Ed
 1e-07 1 1 0
1  29 0 0.523598775598299 0.785398163397448
2  219 24 0 0.523598775598299 0.785398163397448
2  220 33 0 0.523598775598299 0.785398163397448
2  221 26 0 0.523598775598299 0.785398163397448
2  222 32 0 0.523598775598299 0.785398163397448
0

0101000
+205 3 -205 5 *
Ed
 1e-07 1 1 0
1  28 0 0 0.5
2  189 6 0 0 0.5
2  190 36 16 0 0.5
2  191 36 27 0 0.5
2  192 35 16 0 0.5
2  193 35 28 0 0.5
2  194 37 16 0 0.5
2  195 37 29 0 0.5
2  223 35 29 0 0.5
0

0101000
+201 0 -196 29 *
Ed
 1.00000000111022e-07 1 1 0
1  27 0 0 1
2  174 5 0 0 1
2  175 6 0 0 1
2  176 46 16 0 1
2  177 46 27 0 1
2  178 41 16 0 1
2  179 41 17 0 1
2  180 43 16 0 1
2  181 43 28 0 1
2  182 42 16 0 1
2  183 42 18 0 1
2  184 44 16 0 1
2  185 44 29 0 1
2  186 45 16 0 1
2  187 45 19 0 1
2  188 10 16 0 1
2  224 42 19 0 1
2  225 43 19 0 1
2  226 44 19 0 1
2  227 6 33 0 1
0

0101000
+195 19 -196 19 *
Ed
 1e-07 1 1 0
1  26 0 0.5 1
2  167 6 0 0.5 1
2  168 39 16 0.5 1
2  169 39 27 0.5 1
2  170 40 16 0.5 1
2  171 40 28 0.5 1
2  172 38 16 0.5 1
2  173 38 29 0.5 1
2  228 40 29 0.5 1
0

0101000
+195 29 -204 0 *
Ed
 1e-07 1 1 0
1  30 0 0.523598775598299 0.785398163397448
2  229 37 0 0.523598775598299 0.785398163397448
2  230 29 0 0.523598775598299 0.785398163397448
2  231 30 0 0.523598775598299 0.785398163397448
2  232 35 0 0.523598775598299 0.785398163397448
0

0101000
+201 3 -201 5 *
Ed
 1.00000000111022e-07 1 1 0
1  22 0 0.523598775598299 0.785398163397448
2  107 45 0 0.523598775598299 0.785398163397448
2  108 1 0 0.523598775598299 0.785398163397448
2  233 42 0 0.523598775598299 0.785398163397448
2  234 43 0 0.523598775598299 0.785398163397448
2  235 44 0 0.523598775598299 0.785398163397448
2  236 35 0 0.523598775598299 0.785398163397448
2  237 4 0 0.523598775598299 0.785398163397448
2  238 37 0 0.523598775598299 0.785398163397448
0

0101000
+198 0 -196 0 *
Ed
 1e-07 1 1 0
1  20 0 0.523598775598299 0.785398163397448
2  89 33 0 0.523598775598299 0.785398163397448
2  90 38 0 0.523598775598299 0.785398163397448
2  239 32 0 0.523598775598299 0.785398163397448
2  240 40 0 0.523598775598299 0.785398163397448
0

0101000
+204 3 -204 5 *
Ed
 1.00000000111022e-07 1 1 0
1  31 0 0.523598775598299 0.785398163397448
2  241 8 0 0.523598775598299 0.785398163397448
2  242 42 0 0.523598775598299 0.785398163397448
2  243 43 0 0.523598775598299 0.785398163397448
2  244 44 0 0.523598775598299 0.785398163397448
2  245 45 0 0.523598775598299 0.785398163397448
2  246 40 0 0.523598775598299 0.785398163397448
2  247 38 0 0.523598775598299 0.785398163397448
2  248 9 0 0.523598775598299 0.785398163397448
0

0101000
+197 0 -195 0 *
Ed
 1e-07 1 1 0
1  32 0 0.785398163397448 1.30899693899575
2  249 25 0 0.785398163397448 1.30899693899575
2  250 26 0 0.785398163397448 1.30899693899575
4 C2 25 0 26 0
0

0101000
+206 5 -206 7 *
Ed
 1.00000000055511e-07 1 1 0
1  33 0 0.785398163397448 1.30899693899575
2  251 25 0 0.785398163397448 1.30899693899575
2  252 30 0 0.785398163397448 1.30899693899575
0

0101000
+207 5 -207 7 *
Ed
 1e-07 1 1 0
1  18 0 0.785398163397448 1.30899693899575
2  77 26 0 0.785398163397448 1.30899693899575
2  78 32 0 0.785398163397448 1.30899693899575
0

0101000
+205 5 -205 7 *
Ed
 1e-07 1 1 0
1  28 0 0 0.5
2  189 6 0 0 0.5
2  190 36 16 0 0.5
2  191 36 27 0 0.5
2  192 35 16 0 0.5
2  193 35 28 0 0.5
2  194 37 16 0 0.5
2  195 37 29 0 0.5
0

0101000
+201 0 -194 28 *
Ed
 1.00000000111022e-07 1 1 0
1  27 0 0 1
2  174 5 0 0 1
2  175 6 0 0 1
2  176 46 16 0 1
2  177 46 27 0 1
2  178 41 16 0 1
2  179 41 17 0 1
2  180 43 16 0 1
2  181 43 28 0 1
2  182 42 16 0 1
2  183 42 18 0 1
2  184 44 16 0 1
2  185 44 29 0 1
2  186 45 16 0 1
2  187 45 19 0 1
2  188 10 16 0 1
2  253 43 18 0 1
2  254 6 34 0 1
0

0101000
+193 18 -194 18 *
Ed
 1e-07 1 1 0
1  26 0 0.5 1
2  167 6 0 0.5 1
2  168 39 16 0.5 1
2  169 39 27 0.5 1
2  170 40 16 0.5 1
2  171 40 28 0.5 1
2  172 38 16 0.5 1
2  173 38 29 0.5 1
0

0101000
+193 28 -204 0 *
Ed
 1e-07 1 1 0
1  19 0 0.785398163397448 1.30899693899575
2  83 35 0 0.785398163397448 1.30899693899575
2  84 30 0 0.785398163397448 1.30899693899575
0

0101000
+201 5 -201 7 *
Ed
 1.00000000111022e-07 1 1 0
1  34 0 0.785398163397448 1.30899693899575
2  255 42 0 0.785398163397448 1.30899693899575
2  256 4 0 0.785398163397448 1.30899693899575
2  257 43 0 0.785398163397448 1.30899693899575
2  258 35 0 0.785398163397448 1.30899693899575
0

0101000
+196 0 -194 0 *
Ed
 1e-07 1 1 0
1  35 0 0.785398163397448 1.30899693899575
2  259 32 0 0.785398163397448 1.30899693899575
2  260 40 0 0.785398163397448 1.30899693899575
0

0101000
+204 5 -204 7 *
Ed
 1.00000000111022e-07 1 1 0
1  31 0 0.785398163397448 1.30899693899575
2  241 8 0 0.785398163397448 1.30899693899575
2  242 42 0 0.785398163397448 1.30899693899575
2  261 43 0 0.785398163397448 1.30899693899575
2  262 40 0 0.785398163397448 1.30899693899575
0

0101000
+195 0 -193 0 *
Ed
 1.00000000111022e-07 1 1 0
1  2 0 0 0.5
2  5 5 0 0 0.5
2  6 6 0 0 0.5
2  7 7 16 0 0.5
2  8 7 17 0 0.5
2  9 8 16 0 0.5
2  10 8 18 0 0.5
2  11 9 16 0 0.5
2  12 9 19 0 0.5
2  13 10 16 0 0.5
2  263 8 17 0 0.5
2  264 9 17 0 0.5
0

0101000
+199 16 -197 17 *
Ed
 1.00000000111022e-07 1 1 0
1  2 0 0 0.5
2  5 5 0 0 0.5
2  6 6 0 0 0.5
2  7 7 16 0 0.5
2  8 7 17 0 0.5
2  9 8 16 0 0.5
2  10 8 18 0 0.5
2  11 9 16 0 0.5
2  12 9 19 0 0.5
2  13 10 16 0 0.5
2  265 8 19 0 0.5
0

0101000
+199 16 -195 19 *
Ed
 1.00000000111022e-07 1 1 0
1  36 0 0.523598775598299 0.785398163397448
2  266 9 0 0.523598775598299 0.785398163397448
2  267 13 0 0.523598775598299 0.785398163397448
2  268 11 0 0.523598775598299 0.785398163397448
2  269 8 0 0.523598775598299 0.785398163397448
0

0101000
+199 8 -199 9 *
Ed
 1.00000000222045e-07 1 1 0
1  4 0 0 0.2
2  16 12 0 0 0.2
2  17 12 20 0 0.2
2  18 11 0 0 0.2
2  19 11 21 0 0.2
2  20 13 0 0 0.2
2  21 13 22 0 0.2
2  22 10 0 0 0.2
2  270 11 20 0 0.2
2  271 13 20 0 0.2
0

0101000
+199 0 -192 20 *
Ed
 1.00000000111022e-07 1 1 0
1  5 0 0 0.6
2  23 14 0 0 0.6
2  24 14 20 0 0.6
2  25 15 0 0 0.6
2  26 15 21 0 0.6
2  27 16 0 0 0.6
2  28 16 22 0 0.6
2  29 10 0 0 0.6
2  272 15 20 0 0.6
2  273 16 20 0 0.6
2  274 48 35 0 0.6
2  275 20 36 0 0.6
0

0101000
+191 20 -192 20 *
Ed
 1.00000000111022e-07 1 1 0
1  6 0 0 0.5
2  30 5 0 0 0.5
2  31 6 0 0 0.5
2  32 17 16 0 0.5
2  33 17 17 0 0.5
2  34 4 16 0 0.5
2  35 4 18 0 0.5
2  36 1 16 0 0.5
2  37 1 19 0 0.5
2  38 10 16 0 0.5
2  276 4 17 0 0.5
2  277 1 17 0 0.5
0

0101000
+198 17 -200 16 *
Ed
 1.00000000222045e-07 1 1 0
1  7 0 0 0.2
2  39 18 0 0 0.2
2  40 18 20 0 0.2
2  41 3 0 0 0.2
2  42 3 21 0 0.2
2  43 2 0 0 0.2
2  44 2 22 0 0.2
2  45 10 0 0 0.2
2  278 3 20 0 0.2
2  279 2 20 0 0.2
0

0101000
+191 20 -200 0 *
Ed
 1.00000000111022e-07 1 1 0
1  4 0 0 0.2
2  16 12 0 0 0.2
2  17 12 20 0 0.2
2  18 11 0 0 0.2
2  19 11 21 0 0.2
2  20 13 0 0 0.2
2  21 13 22 0 0.2
2  22 10 0 0 0.2
2  280 11 22 0 0.2
0

0101000
+199 0 -190 22 *
Ed
 1.00000000111022e-07 1 1 0
1  5 0 0 0.6
2  23 14 0 0 0.6
2  24 14 20 0 0.6
2  25 15 0 0 0.6
2  26 15 21 0 0.6
2  27 16 0 0 0.6
2  28 16 22 0 0.6
2  29 10 0 0 0.6
2  281 15 22 0 0.6
2  282 48 37 0 0.6
2  283 20 38 0 0.6
0

0101000
+189 22 -190 22 *
Ed
 1.00000000111022e-07 1 1 0
1  6 0 0 0.5
2  30 5 0 0 0.5
2  31 6 0 0 0.5
2  32 17 16 0 0.5
2  33 17 17 0 0.5
2  34 4 16 0 0.5
2  35 4 18 0 0.5
2  36 1 16 0 0.5
2  37 1 19 0 0.5
2  38 10 16 0 0.5
2  284 4 19 0 0.5
0

0101000
+196 19 -200 16 *
Ed
 1.00000000111022e-07 1 1 0
1  7 0 0 0.2
2  39 18 0 0 0.2
2  40 18 20 0 0.2
2  41 3 0 0 0.2
2  42 3 21 0 0.2
2  43 2 0 0 0.2
2  44 2 22 0 0.2
2  45 10 0 0 0.2
2  285 3 22 0 0.2
0

0101000
+189 22 -200 0 *
Ed
 1.00000000111022e-07 1 1 0
1  8 0 0.523598775598299 0.785398163397448
2  46 15 0 0.523598775598299 0.785398163397448
2  47 11 0 0.523598775598299 0.785398163397448
4 C2 15 0 11 0
2  286 16 0 0.523598775598299 0.785398163397448
2  287 13 0 0.523598775598299 0.785398163397448
2  288 48 12 0.523598775598299 0.785398163397448
2  289 22 12 0.523598775598299 0.785398163397448
0

0101000
+192 0 -190 0 *
Ed
 1.00000000111022e-07 1 1 0
1  9 0 0.523598775598299 0.785398163397448
2  48 3 0 0.523598775598299 0.785398163397448
2  49 15 0 0.523598775598299 0.785398163397448
4 C2 3 0 15 0
2  290 2 0 0.523598775598299 0.785398163397448
2  291 16 0 0.523598775598299 0.785398163397448
2  292 48 12 0.523598775598299 0.785398163397448
2  293 19 12 0.523598775598299 0.785398163397448
0

0101000
+191 0 -189 0 *
Wi

0101100
-158 1 -157 1 +156 1 +155 1 -154 1 +153 1 +152 1 *
Wi

0101100
+151 1 +154 1 +150 1 -180 0 +182 0 -183 0 *
Wi

0101100
-158 3 -149 0 +158 5 +148 0 *
Wi

0101100
-158 3 +152 3 -157 3 +147 3 +156 3 -146 30 +145 3 *
Wi

0101100
-157 3 -144 0 +157 5 +149 0 *
Wi

0101100
-158 5 +152 5 -157 5 +143 5 +156 5 -142 32 +141 5 *
Wi

0101100
-152 3 -140 0 +152 5 +148 0 *
Wi

0101100
-147 3 -139 0 +143 5 +140 0 *
Wi

0101100
-156 3 -144 0 +156 5 +138 0 *
Wi

0101100
-146 30 -139 0 +142 32 +137 0 *
Wi

0101100
-145 3 -138 0 +141 5 +137 0 *
Wi

0101100
-158 5 -136 0 +158 7 +135 0 *
Wi

0101100
-157 5 -134 0 +157 7 +136 0 *
Wi

0101100
-158 7 +152 7 -157 7 +133 7 +156 7 -132 11 +131 7 *
Wi

0101100
-152 5 -130 0 +152 7 +135 0 *
Wi

0101100
-143 5 -129 0 +133 7 +130 0 *
Wi

0101100
-156 5 -134 0 +156 7 +128 0 *
Wi

0101100
-142 32 -129 0 +132 11 +127 0 *
Wi

0101100
-141 5 -128 0 +131 7 +127 0 *
Wi

0101100
-126 30 -137 0 +125 32 +124 0 *
Wi

0101100
+126 30 -123 8 +146 30 +122 8 +121 30 -120 8 *
Wi

0101100
+125 32 -119 9 +142 32 +118 9 +117 32 -116 9 *
Wi

0101100
-123 8 -115 0 +119 9 +124 0 *
Wi

0101100
-122 8 -115 0 +118 9 +114 0 *
Wi

0101100
-121 30 -186 0 +117 32 +139 0 *
Wi

0101100
-120 8 -186 0 +116 9 +114 0 *
Wi

0101100
-125 32 -127 0 +185 11 +184 0 *
Wi

0101100
+185 11 -183 10 +132 11 +182 10 +181 11 -180 10 *
Wi

0101100
-119 9 -179 0 +183 10 +184 0 *
Wi

0101100
-118 9 -179 0 +182 10 +178 0 *
Wi

0101100
-117 32 -177 0 +181 11 +129 0 *
Wi

0101100
-116 9 -177 0 +180 10 +178 0 *
Wi

0101100
+114 0 -176 13 +175 15 -174 12 *
Wi

0101100
+176 13 -122 8 +173 13 +172 13 *
Wi

0101100
+175 15 -118 9 +173 15 +171 15 *
Wi

0101100
+174 0 -170 0 -173 1 +173 26 *
Wi

0101100
+170 12 -172 13 +171 15 -115 0 *
Wi

0101100
-158 1 -169 0 +158 3 +168 0 *
Wi

0101100
-157 1 -167 0 +157 3 +169 0 *
Wi

0101100
-152 1 -166 0 +152 3 +168 0 *
Wi

0101100
-156 1 -167 0 +156 3 +165 0 *
Wi

0101100
-155 1 -165 0 +145 3 +164 0 *
Wi

0101100
-154 1 -163 0 +146 30 +164 0 *
Wi

0101100
-153 1 -163 0 +147 3 +166 0 *
Wi

0101100
-151 1 -164 0 +126 30 +162 0 *
Wi

0101100
-183 0 -161 0 +123 8 +162 0 *
Wi

0101100
-150 1 -160 0 +121 30 +163 0 *
Wi

0101100
-180 0 -160 0 +120 8 +159 0 *
Wi

0101100
-182 0 -161 0 +122 8 +159 0 *
Fa
0  1e-07 6 1

0111000
+113 0 *
Fa
0  1.00000000111022e-07 10 0

0111000
+112 0 *
Fa
0  1e-07 25 0

0111000
+111 0 *
Fa
0  1e-07 6 3

0111000
+110 0 *
Fa
0  1e-07 26 0

0111000
+109 0 *
Fa
0  1e-07 6 5

0111000
+108 0 *
Fa
0  1e-07 29 0

0111000
+107 0 *
Fa
0  1e-07 37 0

0111000
+106 0 *
Fa
0  1e-07 33 0

0111000
+105 0 *
Fa
0  1.00000000111022e-07 43 0

0111000
+104 0 *
Fa
0  1e-07 38 0

0111000
+103 0 *
Fa
0  1e-07 25 0

0111000
+102 0 *
Fa
0  1e-07 26 0

0111000
+101 0 *
Fa
0  1e-07 6 7

0111000
+100 0 *
Fa
0  1e-07 30 0

0111000
+99 0 *
Fa
0  1e-07 35 0

0111000
+98 0 *
Fa
0  1e-07 32 0

0111000
+97 0 *
Fa
0  1.00000000111022e-07 43 0

0111000
+96 0 *
Fa
0  1e-07 40 0

0111000
+95 0 *
Fa
0  1.00000000111022e-07 9 0

0111000
+94 0 *
Fa
0  1.00000000111022e-07 10 8

0111000
+93 0 *
Fa
0  1.00000000111022e-07 10 9

0111000
+92 0 *
Fa
0  1.00000000111022e-07 13 0

0111000
+91 0 *
Fa
0  1.00000000111022e-07 16 0

0111000
+90 0 *
Fa
0  1.00000000111022e-07 1 0

0111000
+89 0 *
Fa
0  1.00000000111022e-07 2 0

0111000
+88 0 *
Fa
0  1.00000000111022e-07 8 0

0111000
+87 0 *
Fa
0  1.00000000111022e-07 10 10

0111000
+86 0 *
Fa
0  1.00000000111022e-07 11 0

0111000
+85 0 *
Fa
0  1.00000000111022e-07 15 0

0111000
+84 0 *
Fa
0  1.00000000111022e-07 4 0

0111000
+83 0 *
Fa
0  1.00000000111022e-07 3 0

0111000
+82 0 *
Fa
0  1e-07 19 12

0111000
+81 0 *
Fa
0  1e-07 20 13

0111000
+80 0 *
Fa
0  1e-07 20 15

0111000
+79 0 *
Fa
0  1e-07 21 0

0111000
+78 0 *
Fa
0  1e-07 22 12

0111000
+77 0 *
Fa
0  1e-07 23 0

0111000
+76 0 *
Fa
0  1e-07 26 0

0111000
+75 0 *
Fa
0  1e-07 29 0

0111000
+74 0 *
Fa
0  1e-07 33 0

0111000
+73 0 *
Fa
0  1e-07 38 0

0111000
+72 0 *
Fa
0  1.00000000111022e-07 43 0

0111000
+71 0 *
Fa
0  1e-07 37 0

0111000
+70 0 *
Fa
0  1.00000000111022e-07 9 0

0111000
+69 0 *
Fa
0  1.00000000111022e-07 13 0

0111000
+68 0 *
Fa
0  1.00000000111022e-07 1 0

0111000
+67 0 *
Fa
0  1.00000000111022e-07 2 0

0111000
+66 0 *
Fa
0  1.00000000111022e-07 16 0

0111000
+65 0 *
Sh

0101100
+32 0 -41 0 +31 0 -30 0 +29 12 +28 0 *
Sh

0101100
-27 0 +64 0 -26 0 -61 0 +25 0 +24 0 +23 0 -22 0 +21 0 *
Sh

0101100
+20 0 +63 0 +22 0 -44 0 -19 0 +18 0 -17 0 +16 0 *
Sh

0101100
-62 0 +61 0 -60 0 -59 0 +58 0 +57 0 +56 0 -55 0 +54 0 *
Sh

0101100
-53 0 +59 0 -52 0 -51 0 +50 0 +49 0 +48 0 -47 0 +46 0 *
Sh

0101100
+45 0 +44 0 +55 0 -43 0 -42 0 +41 0 +40 0 -39 0 *
Sh

0101100
+38 0 +43 0 +47 0 -37 0 -36 0 +35 0 +34 0 -33 0 *
So

0100000
+15 0 *
So

0100000
+14 0 *
So

0100000
+13 0 *
So

0100000
+12 0 *
So

0100000
+11 0 *
So

0100000
+10 0 *
So

0100000
+9 0 *
Co

1100000
+210 0 +209 1 -208 1 -207 1 +206 1 +205 1 +204 1 +203 1 +202 1 +201 1 
-200 0 -199 0 +207 3 -206 3 -206 5 -207 5 -201 3 +205 3 -198 0 +204 3 
-197 0 -205 5 +201 5 +196 0 -204 5 +195 0 -206 7 -207 7 -205 7 +201 7 
+194 0 -204 7 +193 0 -199 8 +199 9 +192 0 +191 0 -200 8 -190 0 -189 0 
+200 9 +199 10 -208 11 -209 11 +200 10 +188 13 -188 15 -187 13 +187 15 -186 0 
+185 11 +184 0 +183 10 -182 10 -181 11 +180 10 +179 0 +178 0 -177 0 -176 13 
+175 15 -174 12 +173 13 +172 13 -173 15 -171 15 -170 12 +169 0 -168 0 +167 0 
-166 0 +165 0 +164 0 +163 0 +162 0 +161 0 -160 0 -159 0 -158 1 -157 1 
+156 1 +155 1 -154 1 +153 1 +152 1 +151 1 +150 1 -180 0 +182 0 -183 0 
+158 3 +149 0 -158 5 -148 0 +152 3 -157 3 +147 3 +156 3 -146 30 +145 3 
+144 0 -157 5 -152 5 -143 5 -156 5 +142 32 -141 5 -140 0 -139 0 +138 0 
-137 0 +136 0 -158 7 -135 0 +134 0 -157 7 -152 7 -133 7 -156 7 +132 11 
-131 7 -130 0 -129 0 +128 0 -127 0 -126 30 +125 32 +124 0 -123 8 +122 8 
+121 30 -120 8 +119 9 -118 9 -117 32 +116 9 +115 0 +114 0 +113 0 +112 0 
-111 0 +110 0 -109 0 -108 0 +107 0 +106 0 +105 0 -104 0 +103 0 -102 0 
-101 0 -100 0 +99 0 +98 0 +97 0 -96 0 +95 0 +94 0 +93 0 -92 0 
-91 0 +90 0 +89 0 -88 0 +87 0 -86 0 -85 0 +84 0 +83 0 -82 0 
+81 0 +80 0 -79 0 +78 12 +77 0 -76 0 -75 0 +74 0 +73 0 +72 0 
-71 0 +70 0 +69 0 -68 0 +67 0 -66 0 +65 0 +64 0 +63 0 -62 0 
+61 0 -60 0 -59 0 +58 0 +57 0 +56 0 -55 0 +54 0 -53 0 -52 0 
-51 0 +50 0 +49 0 +48 0 -47 0 +46 0 +45 0 +44 0 -43 0 -42 0 
+41 0 +40 0 -39 0 +38 0 -37 0 -36 0 +35 0 +34 0 -33 0 +32 0 
+31 0 -30 0 +29 12 +28 0 -27 0 -26 0 +25 0 +24 0 +23 0 -22 0 
+21 0 +20 0 -19 0 +18 0 -17 0 +16 0 +15 0 +14 0 +13 0 +12 0 
+11 0 +10 0 +9 0 +8 0 +7 0 +6 0 +5 0 +4 0 +3 0 +2 0 
*

+1 0 