DBRep_DrawableShape

CASCADE Topology V1, (c) Matra-Datavision
Locations 10
1
              1               0               0             0.2 
              0               1               0               0 
              0               0               1               0 
1
1.11022302462516e-16               0               1               0 
              0               1               0               0 
             -1               0 1.11022302462516e-16               0 
2  1 1 2 1 0
1
1.11022302462516e-16               0               1               0 
              0               1               0               0 
             -1               0 1.11022302462516e-16               0 
2  1 1 4 1 0
2  1 -1 0
2  2 -1 1 -1 0
2  1 1 4 1 2 -1 1 -1 0
2  4 -1 1 -1 0
2  1 1 2 1 4 -1 1 -1 0
Curve2ds 69
1 0 0.55000000000000004 1 0 
1 0 1.5707963267948966 1 0 
1 0 1 1 0 
2 0 0 -1 0 0 1 0.20000000000000001
1 -0.5 0.5 0 -1 
1 0 0 0 1 
1 1.5707963267948966 0 0 1 
1 0 3.1415926535897931 1 0 
1 0 3.1415926535897931 1 0 
2 3.1068680086566418e-17 0 -1 0 -0 -1 0.049999999999999989
2 -0.5 0 -1 0 -0 -1 0.049999999999999989
1 0 0 0 1 
1 1.5707963267948966 0 0 1 
1 -0.5 -0.5 1 0 
1 -0.20000000000000001 0 -1 0 
1 -2.2204460492503132e-17 0.20000000000000001 -1.1102230246251565e-16 1 
2 0 0 -1 0 0 1 0.69999999999999996
1 0 1 1 0 
2 -0 0 -1 0 0 1 0.69999999999999996
2 3.1068680086566418e-17 0 -1 0 -0 -1 0.050000000000000003
2 -0.5 0 -1 0 -0 -1 0.050000000000000003
1 0 0 0 1 
1 1.5707963267948966 0 0 1 
1 0 0 0 1 
1 1.5707963267948966 0 0 1 
1 0.5 0.5 -1 0 
1 1.2 0 -1 0 
1 1.3322676295501878e-16 1.2 -1.1102230246251565e-16 -1 
1 0 0 0 1 
1 1.5707963267948966 0 0 1 
1 -0.25 0.5 0 -1 
1 0 0.5 0 -1 
1 0 0.5 0 -1 
1 0 4.7123889803846897 1 0 
1 0 0.44999999999999996 1 0 
2 0 0 1 0 -0 1 0.69999999999999996
1 0 0 1 0 
2 0 0 1 0 -0 1 0.69999999999999996
1 0 0 1 0 
2 0 0 1 0 -0 1 0.20000000000000001
1 -0.69999999999999996 0 -1 0 
1 -7.7715611723760953e-17 0.69999999999999996 -1.1102230246251565e-16 1 
1 -0.25 -0.5 1 0 
1 -0.69999999999999996 0 -1 0 
1 0 -0.5 1 0 
2 0 0 -1 0 0 1 1.2
1 0 0 1 0 
8 0 1.5707963267948966
1 0 0 1 0 
2 -0 0 -1 0 0 1 1.2
1 -7.7715611723760953e-17 0.69999999999999996 -1.1102230246251565e-16 1 
1 0 -0.5 1 0 
1 1.2 0 -1 0 
1 1.3322676295501878e-16 1.2 -1.1102230246251565e-16 -1 
1 0.25 0.5 -1 0 
1 1.2 0 -1 0 
1 0.5 0.5 -1 0 
1 0 0 0 1 
1 1.5707963267948966 0 0 1 
1 0.25 -0.5 0 1 
8 0 1
1 0 0 0 1 
1 0.5 -0.5 0 1 
8 0 1
1 1.5707963267948966 0 0 1 
1 0.5 -0.5 0 1 
1 0 1 1 0 
2 0 0 1 0 -0 1 1.2
8 0 1.5707963267948966
1 0 1 1 0 
2 0 0 1 0 -0 1 1.2
1 1.3322676295501878e-16 1.2 -1.1102230246251565e-16 -1 
1 0.5 0.5 -1 0 
Curves 18
2 0 0.45000000000000001 0 0 1 0 1 0 0 0 0 -1 0.20000000000000001
2 0 0 0 0 1 0 1 0 0 0 0 -1 0.20000000000000001
1 0 1 0 0 -1 0 
2 0 0.5 0 0 1 0 1 0 0 0 0 -1 0.25
2 0 0.5 0 -0 -0 1 -1 0 0 -0 -1 -0 0.049999999999999989
1 0 0 0 1 0 0 
2 0 0 0 0 1 0 1 0 0 0 0 -1 0.69999999999999996
2 0 0.5 0 -0 -0 1 -1 0 0 -0 -1 -0 0.050000000000000003
1 1 1 0 -1 0 0 
1 0.5 1 0 0 -1 0 
2 0 0.55000000000000004 0 0 1 0 1 0 0 0 0 -1 0.20000000000000001
2 0 1 0 0 1 0 1 0 0 0 0 -1 0.69999999999999996
2 0 1 0 0 1 0 1 0 0 0 0 -1 0.20000000000000001
1 0.5 0 0 1 0 0 
2 0 0 0 0 1 0 1 0 0 0 0 -1 1.2
1 1 1 0 -1 0 0 
1 1 0 0 0 1 0 
2 0 1 0 0 1 0 1 0 0 0 0 -1 1.2
Polygon3D 0
PolygonOnTriangulations 0
Surfaces 14
2 0 1 0 -0 -1 -0 1 -0 0 0 -0 -1 0.20000000000000001
7 0 0 0 0 1 0 
8 1.5707963267948966 3.1415926535897931
2 0.20000000000000001 0.5 0 0 -0 1 -1 0 0 -0 -1 -0 0.049999999999999989
1 0 0 0 0 1 0 -1 -0 -0 0 0 -1 
1 0.5 0.5 0 0 0 1 1 0 -0 -0 1 0 
7 0 0 0 0 1 0 
8 3.1415926535897931 4.7123889803846897
2 0.20000000000000001 0.5 0 0 -0 1 -1 0 0 -0 -1 -0 0.050000000000000003
1 -3.1068680086566418e-17 0.5 0 0 0 1 1 0 -0 -0 1 0 
1 0 0 0 0 1 0 -1 -0 -0 0 0 -1 
2 0 1 0 -0 -1 -0 1 -0 0 0 -0 -1 0.69999999999999996
2 0 1 0 -0 -1 -0 1 -0 0 0 -0 -1 0.20000000000000001
1 0 1 0 0 1 0 1 0 0 0 0 -1 
1 0.75 0.5 0 0 0 1 1 0 -0 -0 1 0 
1 0 1 0 0 1 0 1 0 0 0 0 -1 
2 0 0 0 0 1 0 1 0 0 0 0 -1 1.2
2 0 0 0 0 1 0 1 0 0 0 0 -1 1.2
Triangulations 0

TShapes 69
Ve
1e-07
0 0.5 0
0 0

0101101
*
Ve
1.00000000055511e-07
0 0.45 0
0 0

0101101
*
Ve
1e-07
0 0 0
0 0

0101101
*
Ve
1e-07
0.05 0.5 0
0 0

0101101
*
Ve
1.00001e-07
0.5 0 0
0 0

0101101
*
Ve
1e-07
0 0.55 0
0 0

0101101
*
Ve
1e-07
0 1 0
0 0

0101101
*
Ve
1.00001e-07
0.5 1 0
0 0

0101101
*
Ve
1.00000000111022e-07
1.2 0 0
0 0

0101101
*
Ve
1.00000000111022e-07
1.33226762955019e-16 0 -1.2
0 0

0101101
*
Ve
1e-07
1.2 1 0
0 0

0101101
*
Ve
1e-07
1.33226762955019e-16 1 -1.2
0 0

0101101
*
Ed
 1.00000000055511e-07 1 1 0
1  1 0 0 1.5707963267949
2  1 1 0 0 1.5707963267949
2  2 2 0 0 1.5707963267949
0

0101000
+68 1 -68 3 *
Ed
 1e-07 1 1 0
1  2 0 0 1.5707963267949
2  3 1 0 0 1.5707963267949
2  4 3 0 0 1.5707963267949
0

0101000
+67 1 -67 3 *
Ed
 1e-07 1 1 0
1  3 0 0.55 1
2  5 4 0 0.55 1
2  6 1 6 0.55 1
2  7 1 7 0.55 1
0

0101000
+68 0 -67 0 *
Ed
 1e-07 1 1 0
1  4 0 0 1.5707963267949
2  8 2 0 0 1.5707963267949
2  9 5 0 0 1.5707963267949
4 C2 2 0 5 0
0

0101000
+66 1 -66 3 *
Ed
 1e-07 1 1 0
1  5 0 1.5707963267949 3.14159265358979
2  10 6 0 1.5707963267949 3.14159265358979
2  11 4 0 1.5707963267949 3.14159265358979
2  12 2 6 1.5707963267949 3.14159265358979
2  13 2 7 1.5707963267949 3.14159265358979
0

0101000
+68 0 -66 0 *
Ed
 1e-07 1 1 0
1  6 0 0 0.5
2  14 4 0 0 0.5
2  15 3 6 0 0.5
2  16 3 7 0 0.5
0

0101000
+67 0 -65 0 *
Ed
 1e-07 1 1 0
1  7 0 0 1.5707963267949
2  17 7 0 0 1.5707963267949
2  18 8 0 0 1.5707963267949
2  19 3 0 0 1.5707963267949
0

0101000
+65 1 -65 5 *
Ed
 1e-07 1 1 0
1  6 0 0 0.5
2  14 4 0 0 0.5
2  15 3 6 0 0.5
2  16 3 7 0 0.5
0

0101000
+67 0 -65 8 *
Ed
 1e-07 1 1 0
1  8 0 3.14159265358979 4.71238898038469
2  20 6 0 3.14159265358979 4.71238898038469
2  21 4 0 3.14159265358979 4.71238898038469
2  22 5 6 3.14159265358979 4.71238898038469
2  23 5 7 3.14159265358979 4.71238898038469
0

0101000
+66 0 -64 0 *
Ed
 1e-07 1 1 0
1  3 0 0 0.45
2  5 4 0 0 0.45
2  24 9 6 0 0.45
2  25 9 7 0 0.45
0

0101000
+63 0 -64 0 *
Ed
 1e-07 1 1 0
1  9 0 0.5 1
2  26 4 0 0.5 1
2  27 10 6 0.5 1
2  28 10 7 0.5 1
0

0101000
+62 0 -63 0 *
Ed
 1e-07 1 1 0
1  10 0 0 1
2  29 8 6 0 1
2  30 8 9 0 1
2  31 11 0 0 1
2  32 4 0 0 1
2  33 4 10 0 1
0

0101000
+62 0 -65 0 *
Ed
 1e-07 1 1 0
1  9 0 0.5 1
2  26 4 0 0.5 1
2  27 10 6 0.5 1
2  28 10 7 0.5 1
0

0101000
+62 8 -63 0 *
Ed
 1e-07 1 1 0
1  11 0 0 1.5707963267949
2  34 5 0 0 1.5707963267949
2  35 9 0 0 1.5707963267949
0

0101000
+64 1 -64 3 *
Ed
 1e-07 1 1 0
1  12 0 0 1.5707963267949
2  36 12 0 0 1.5707963267949
2  37 8 0 0 1.5707963267949
2  38 10 0 0 1.5707963267949
0

0101000
+62 1 -62 5 *
Ed
 1e-07 1 1 0
1  13 0 0 1.5707963267949
2  39 9 0 0 1.5707963267949
2  40 10 0 0 1.5707963267949
0

0101000
+63 1 -63 3 *
Ed
 1.00000000111022e-07 1 1 0
1  14 0 0 0.5
2  41 7 6 0 0.5
2  42 7 9 0 0.5
2  43 11 0 0 0.5
2  44 3 6 0 0.5
2  45 4 0 0 0.5
0

0101000
+65 0 -61 6 *
Ed
 1e-07 1 1 0
1  15 0 0 1.5707963267949
2  46 7 0 0 1.5707963267949
2  47 13 0 0 1.5707963267949
2  48 14 0 0 1.5707963267949
2  49 3 0 0 1.5707963267949
0

0101000
+61 0 -60 0 *
Ed
 1.00000000111022e-07 1 1 0
1  14 0 0 0.5
2  41 7 6 0 0.5
2  42 7 9 0 0.5
2  43 11 0 0 0.5
2  50 3 9 0 0.5
2  51 4 10 0 0.5
0

0101000
+65 0 -60 9 *
Ed
 1e-07 1 1 0
1  16 0 0 0.5
2  52 12 6 0 0.5
2  53 12 9 0 0.5
2  54 11 0 0 0.5
2  55 10 6 0 0.5
2  56 4 0 0 0.5
0

0101000
+59 6 -62 0 *
Ed
 1e-07 1 1 0
1  17 0 0 1
2  57 13 6 0 1
2  58 13 9 0 1
2  59 11 0 0 1
2  60 14 6 0 1
2  61 4 0 0 1
0

0101000
+61 6 -59 6 *
Ed
 1e-07 1 1 0
1  17 0 0 1
2  57 13 6 0 1
2  58 13 9 0 1
2  59 11 0 0 1
2  62 14 9 0 1
2  63 4 10 0 1
0

0101000
+60 9 -58 9 *
Ed
 1e-07 1 1 0
1  18 0 0 1.5707963267949
2  64 13 0 0 1.5707963267949
2  65 12 0 0 1.5707963267949
2  66 14 0 0 1.5707963267949
2  67 10 0 0 1.5707963267949
0

0101000
+59 0 -58 0 *
Ed
 1e-07 1 1 0
1  16 0 0 0.5
2  52 12 6 0 0.5
2  53 12 9 0 0.5
2  54 11 0 0 0.5
2  68 10 9 0 0.5
2  69 4 10 0 0.5
0

0101000
+58 9 -62 0 *
Wi

0101100
+57 0 -56 0 -55 1 +55 3 *
Wi

0101100
+57 0 -54 0 -53 1 +53 3 *
Wi

0101100
-52 1 -51 0 +50 3 +56 0 *
Wi

0101100
-53 1 -49 1 +48 1 +47 1 -46 1 +52 1 +55 1 *
Wi

0101100
-53 3 -49 3 +48 3 +45 3 -46 5 +50 3 +55 3 *
Wi

0101100
+54 0 -44 0 -49 1 +49 3 *
Wi

0101100
+43 0 -46 1 +46 5 -51 0 *
Wi

0101100
+42 0 -44 0 -48 1 +48 3 *
Wi

0101100
-47 1 -42 0 +45 3 +43 0 *
Wi

0101100
-41 1 -40 0 +39 5 +51 0 *
Wi

0101100
+46 1 +38 1 +37 1 +41 1 *
Wi

0101100
+40 0 -37 1 +36 5 -35 0 *
Wi

0101100
+46 5 +34 5 +36 5 +39 5 *
Wi

0101100
+35 0 -38 1 +34 5 -43 0 *
Fa
0  1e-07 1 0

0111000
+33 0 *
Fa
0  1e-07 2 0

0111000
+32 0 *
Fa
0  1e-07 3 0

0111000
+31 0 *
Fa
0  1e-07 4 1

0111000
+30 0 *
Fa
0  1e-07 4 3

0111000
+29 0 *
Fa
0  1e-07 5 0

0111000
+28 0 *
Fa
0  1e-07 8 0

0111000
+27 0 *
Fa
0  1e-07 9 0

0111000
+26 0 *
Fa
0  1e-07 10 0

0111000
+25 0 *
Fa
0  1e-07 3 0

0111000
+24 0 *
Fa
0  1e-07 4 1

0111000
+23 0 *
Fa
0  1e-07 14 0

0111000
+22 0 *
Fa
0  1e-07 4 3

0111000
+21 0 *
Fa
0  1e-07 12 0

0111000
+20 0 *
Sh

0101100
+10 0 +9 0 +8 0 -7 0 +13 0 +6 0 *
Sh

0101100
+19 0 -18 0 +17 0 +16 0 -15 0 -14 0 -13 0 +12 0 +11 0 *
So

0100000
+5 0 *
So

0100000
+4 0 *
Co

1100000
+69 0 +68 1 -68 3 -67 1 +67 3 +66 1 -66 3 +65 1 +65 5 +64 1 
+63 1 +62 1 -64 3 -63 3 -62 5 +61 0 +60 0 +59 0 -58 0 +57 0 
-56 0 -55 1 +55 3 +54 0 +53 1 -53 3 -52 1 -51 0 +50 3 -49 1 
+48 1 +47 1 -46 1 +49 3 -48 3 -45 3 +46 5 +44 0 -43 0 +42 0 
-41 1 -40 0 +39 5 +38 1 +37 1 +36 5 -35 0 -34 5 +33 0 -32 0 
+31 0 +30 0 -29 0 -28 0 -27 0 +26 0 +25 0 +24 0 +23 0 +22 0 
-21 0 +20 0 +19 0 -18 0 +17 0 +16 0 -15 0 -14 0 -13 0 +12 0 
+11 0 +10 0 +9 0 +8 0 -7 0 +6 0 +5 0 +4 0 +3 0 +2 0 
*

+1 0 